<svg version="1.1" id="Layer_1" xmlns="http://www.w3.org/2000/svg" xmlns:xlink="http://www.w3.org/1999/xlink" x="0px" y="0px"
	 width="100%" viewBox="0 0 1002 200" enable-background="new 0 0 1002 200" xml:space="preserve">
<path fill="#E6EDE3" opacity="1.000000" stroke="none" 
	d="
M46.000000,201.000000 
	C31.015600,201.000000 16.031200,201.000000 1.023400,201.000000 
	C1.023400,134.418274 1.023400,67.836533 1.023400,1.000000 
	C59.353981,1.000000 117.708328,1.000000 176.487976,1.353714 
	C176.130539,3.159872 175.460953,4.687905 174.548447,6.053618 
	C155.902344,33.960602 137.205048,61.833393 118.566048,89.745125 
	C95.124710,124.848343 71.710678,159.969864 48.357578,195.131760 
	C47.215538,196.851288 46.769920,199.033325 46.000000,201.000000 
z"/>
<path fill="#E1EAE1" opacity="1.000000" stroke="none" 
	d="
M46.468658,201.000000 
	C46.769920,199.033325 47.215538,196.851288 48.357578,195.131760 
	C71.710678,159.969864 95.124710,124.848343 118.566048,89.745125 
	C137.205048,61.833393 155.902344,33.960602 174.548447,6.053618 
	C175.460953,4.687905 176.130539,3.159872 176.956635,1.353714 
	C212.687561,1.000000 248.375122,1.000000 284.523376,1.372938 
	C284.271149,3.396950 283.780701,5.194559 282.806488,6.673502 
	C278.788269,12.773655 274.573883,18.744192 270.519958,24.821301 
	C232.437714,81.908844 194.368683,139.005203 156.332230,196.123260 
	C155.343445,197.608078 154.768127,199.368240 154.000000,201.000000 
	C118.312439,201.000000 82.624878,201.000000 46.468658,201.000000 
z"/>
<path fill="#C6D9D3" opacity="1.000000" stroke="none" 
	d="
M801.000000,201.000000 
	C765.312439,201.000000 729.624878,201.000000 693.476562,200.628296 
	C694.520813,197.542999 695.843384,194.707901 697.557739,192.133667 
	C738.911682,130.037369 780.312073,67.971947 821.667847,5.876873 
	C822.656677,4.392085 823.231873,2.631789 824.000000,1.000000 
	C859.687561,1.000000 895.375122,1.000000 931.487915,1.353709 
	C931.040710,3.300134 930.283630,4.969823 929.279358,6.474504 
	C887.397400,69.221695 845.483582,131.947601 803.639099,194.719727 
	C802.402283,196.575104 801.864014,198.896103 801.000000,201.000000 
z"/>
<path fill="#DDE7DF" opacity="1.000000" stroke="none" 
	d="
M154.468658,201.000000 
	C154.768127,199.368240 155.343445,197.608078 156.332230,196.123260 
	C194.368683,139.005203 232.437714,81.908844 270.519958,24.821301 
	C274.573883,18.744192 278.788269,12.773655 282.806488,6.673502 
	C283.780701,5.194559 284.271149,3.396950 284.992004,1.372938 
	C328.687561,1.000000 372.375122,1.000000 416.486084,1.350223 
	C412.466949,9.472679 411.563110,9.902117 403.123352,8.569483 
	C402.027924,8.396516 400.862061,8.458134 399.754791,8.605803 
	C391.446564,9.713810 383.136078,10.813596 374.852234,12.084798 
	C373.820129,12.243179 372.939850,13.390840 371.606873,14.237132 
	C362.764465,14.590397 354.294159,14.607338 345.850342,15.088545 
	C343.204285,15.239345 339.551422,15.830840 338.213684,17.612696 
	C333.165314,24.337210 328.568451,31.462938 324.510651,38.828560 
	C323.383667,40.874210 324.701935,44.266972 324.544434,47.130539 
	C321.999878,51.981907 324.090088,57.624863 328.793518,60.324680 
	C325.806213,71.115875 322.938080,81.550240 319.701660,92.066391 
	C315.500641,97.735970 316.702576,106.249062 321.576935,112.174767 
	C326.073761,117.641525 331.837769,120.145592 339.623627,120.358574 
	C338.223663,122.951920 337.444244,124.709778 336.396393,126.289566 
	C321.437866,148.840988 306.419159,171.352524 291.495331,193.926819 
	C290.056335,196.103485 289.152344,198.633835 288.000000,201.000000 
	C243.645767,201.000000 199.291550,201.000000 154.468658,201.000000 
z"/>
<path fill="#BFD6D1" opacity="1.000000" stroke="none" 
	d="
M801.468628,201.000000 
	C801.864014,198.896103 802.402283,196.575104 803.639099,194.719727 
	C845.483582,131.947601 887.397400,69.221695 929.279358,6.474504 
	C930.283630,4.969823 931.040710,3.300134 931.956543,1.353709 
	C955.573853,1.000000 979.147705,1.000000 1003.000000,1.000000 
	C1003.000000,14.352939 1003.000000,27.707811 1002.664185,41.593040 
	C1001.174255,43.498383 999.880310,44.779709 998.886902,46.262409 
	C984.361633,67.942474 969.921143,89.679703 955.294128,111.290764 
	C954.164612,112.959480 951.790649,113.785873 949.560303,115.003296 
	C944.830200,114.314926 943.900940,116.384132 943.922913,120.361961 
	C944.071350,147.240631 944.000183,174.120514 944.000000,201.000000 
	C896.645752,201.000000 849.291565,201.000000 801.468628,201.000000 
z"/>
<path fill="#CADCD5" opacity="1.000000" stroke="none" 
	d="
M823.531372,1.000000 
	C823.231873,2.631789 822.656677,4.392085 821.667847,5.876873 
	C780.312073,67.971947 738.911682,130.037369 697.557739,192.133667 
	C695.843384,194.707901 694.520813,197.542999 693.007874,200.628296 
	C654.979126,201.000000 616.958191,201.000000 578.360840,200.614227 
	C571.176880,198.820862 564.626099,196.951324 557.946411,196.130722 
	C550.722656,195.243286 543.380249,195.292709 536.086548,195.010406 
	C526.297729,194.631516 516.505066,194.350082 506.717163,193.950684 
	C505.800079,193.913254 504.905182,193.330948 504.309937,192.723633 
	C506.261078,192.297119 507.903900,192.003448 509.543243,192.021683 
	C536.764404,192.324615 563.984863,192.680817 591.205933,192.990204 
	C598.119080,193.068787 605.035889,192.921631 611.946411,193.080826 
	C615.741821,193.168274 619.573730,194.215622 623.308594,193.894119 
	C633.442261,193.021835 642.787964,190.163956 649.313049,181.482300 
	C658.538757,169.207352 657.583191,156.194519 652.447815,142.752304 
	C651.794678,141.042755 651.744812,138.997406 651.836304,137.128220 
	C652.123596,131.260010 652.528259,125.393768 653.078796,119.544777 
	C653.223938,118.003632 653.696838,115.538223 654.642151,115.190498 
	C659.074097,113.560143 663.821167,111.239113 668.271667,111.578438 
	C674.533752,112.055885 680.688721,114.487480 686.787964,116.406090 
	C693.754883,118.597641 708.498657,115.506393 712.405273,109.805405 
	C715.235840,105.674751 717.169556,100.673805 718.453979,95.785278 
	C723.121338,78.021431 727.446411,60.164967 731.662537,42.287315 
	C732.602966,38.299545 733.147522,34.044827 732.872925,29.980661 
	C732.321167,21.811958 726.736816,17.265873 719.405884,15.487860 
	C719.076782,15.408035 718.462402,16.504337 717.645325,16.890404 
	C713.870300,15.863937 710.430786,14.999889 707.086914,13.741772 
	C711.427124,13.226850 715.805908,12.379238 719.889160,13.133049 
	C729.017700,14.818310 735.189758,10.499393 736.000000,1.000000 
	C765.020874,1.000000 794.041809,1.000000 823.531372,1.000000 
z"/>
<path fill="#D8E4DD" opacity="1.000000" stroke="none" 
	d="
M288.468658,201.000000 
	C289.152344,198.633835 290.056335,196.103485 291.495331,193.926819 
	C306.419159,171.352524 321.437866,148.840988 336.396393,126.289566 
	C337.444244,124.709778 338.223663,122.951920 339.623627,120.358574 
	C331.837769,120.145592 326.073761,117.641525 321.576935,112.174767 
	C316.702576,106.249062 315.500641,97.735970 319.708832,92.440994 
	C321.043701,95.160545 322.003113,97.587280 322.629761,100.081100 
	C321.950409,100.474312 321.300446,100.802216 321.302368,101.126297 
	C321.336121,106.850815 330.753571,115.563477 336.295654,114.653946 
	C341.660309,113.773544 346.874573,111.878120 352.252075,111.206963 
	C356.365295,110.693604 360.682465,111.036789 364.814270,111.643433 
	C370.145905,112.426247 375.340515,114.461967 380.672668,114.834610 
	C386.401855,115.235001 392.221985,114.333618 398.005310,114.425301 
	C397.722626,118.212181 397.437073,121.574036 396.868103,125.182968 
	C394.181915,133.580338 396.990387,141.903122 403.983185,147.355255 
	C409.996338,152.043579 412.456116,159.098328 409.211365,166.169983 
	C405.131195,175.062302 408.550262,183.272293 413.094971,189.420868 
	C416.262848,193.706802 416.966492,196.623138 416.000000,201.000000 
	C373.645782,201.000000 331.291534,201.000000 288.468658,201.000000 
z"/>
<path fill="#BBD3CE" opacity="1.000000" stroke="none" 
	d="
M949.995117,115.003777 
	C951.790649,113.785873 954.164612,112.959480 955.294128,111.290764 
	C969.921143,89.679703 984.361633,67.942474 998.886902,46.262409 
	C999.880310,44.779709 1001.174255,43.498383 1002.664185,42.061699 
	C1003.000000,67.354225 1003.000000,92.708458 1002.653809,118.576073 
	C1001.046753,120.325012 999.534851,121.390457 998.564453,122.822762 
	C990.111389,135.300034 981.800232,147.873596 973.312012,160.326645 
	C972.287109,161.830322 970.461731,162.788422 969.004944,163.530807 
	C969.001465,148.731003 969.028625,134.399643 968.968384,120.068672 
	C968.959473,117.943047 969.904236,115.054939 966.028320,115.029716 
	C962.166870,115.004593 963.032715,117.859337 963.026489,120.012032 
	C962.979858,136.009537 963.003357,152.007248 963.004150,168.473236 
	C963.002258,179.627716 963.001160,190.313858 963.000000,201.000000 
	C959.307068,201.000000 955.614197,201.000000 951.460632,200.531342 
	C950.999207,173.976715 951.023132,147.890701 950.953979,121.804916 
	C950.947998,119.537033 950.329285,117.270782 949.995117,115.003777 
z"/>
<path fill="#BAD2CE" opacity="1.000000" stroke="none" 
	d="
M969.007324,163.999390 
	C970.461731,162.788422 972.287109,161.830322 973.312012,160.326645 
	C981.800232,147.873596 990.111389,135.300034 998.564453,122.822762 
	C999.534851,121.390457 1001.046753,120.325012 1002.653809,119.044731 
	C1003.000000,146.229843 1003.000000,173.459686 1003.000000,201.000000 
	C991.981079,201.000000 980.959167,201.000000 969.468628,200.531342 
	C968.997559,188.710388 968.995117,177.358109 968.995544,165.671387 
	C969.001404,164.891098 969.004333,164.445236 969.007324,163.999390 
z"/>
<path fill="#D3E1DA" opacity="1.000000" stroke="none" 
	d="
M512.000000,0.999997 
	C558.020874,1.000000 604.041809,1.000000 650.487305,1.355277 
	C647.431763,9.948153 645.877869,10.997759 637.162048,11.000022 
	C633.839050,11.000885 630.471191,10.685087 627.212891,11.145019 
	C625.695435,11.359222 624.390381,13.078842 622.636353,14.257219 
	C619.339844,15.360763 616.421631,16.416935 613.437805,17.232981 
	C612.438660,17.506247 611.252136,17.277830 610.185364,17.087412 
	C606.492920,16.428301 602.831360,15.188593 599.129395,15.071232 
	C589.809692,14.775768 580.442261,14.500548 571.156616,15.134964 
	C564.822388,15.567736 558.611938,17.649590 552.304810,18.759298 
	C550.804993,19.023190 549.087585,18.522402 547.561646,18.067205 
	C544.499268,17.153675 541.455017,16.141020 538.490601,14.951576 
	C536.561035,14.177355 534.099365,13.484385 533.060242,11.951998 
	C528.640076,5.433579 523.756958,3.409590 515.956360,5.560248 
	C511.638275,6.750758 507.311584,7.910173 503.053650,8.738425 
	C506.079010,5.928827 509.039490,3.464411 512.000000,0.999997 
z"/>
<path fill="#D8E4DD" opacity="1.000000" stroke="none" 
	d="
M511.531342,0.999997 
	C509.039490,3.464411 506.079010,5.928827 502.744537,8.882236 
	C499.443848,11.207623 496.708618,14.066638 493.548859,14.658219 
	C487.752167,15.743498 481.565796,16.445305 475.791107,15.601400 
	C463.271271,13.771736 453.023651,18.915743 442.114807,24.173008 
	C439.872955,16.702723 434.257416,13.671655 426.243561,15.082770 
	C423.646729,15.540032 421.170685,16.654648 418.583313,17.204744 
	C417.048279,17.531096 415.366882,17.580332 413.815552,17.339851 
	C409.471588,16.666487 405.188416,15.333059 400.831726,15.064915 
	C391.233704,14.474177 381.605255,14.378068 371.989227,14.080105 
	C372.939850,13.390840 373.820129,12.243179 374.852234,12.084798 
	C383.136078,10.813596 391.446564,9.713810 399.754791,8.605803 
	C400.862061,8.458134 402.027924,8.396516 403.123352,8.569483 
	C411.563110,9.902117 412.466949,9.472679 416.954712,1.350223 
	C448.354218,1.000000 479.708466,1.000000 511.531342,0.999997 
z"/>
<path fill="#D2E0D9" opacity="1.000000" stroke="none" 
	d="
M416.468658,201.000000 
	C416.966492,196.623138 416.262848,193.706802 413.094971,189.420868 
	C408.550262,183.272293 405.131195,175.062302 409.211365,166.169983 
	C412.456116,159.098328 409.996338,152.043579 403.983185,147.355255 
	C396.990387,141.903122 394.181915,133.580338 397.093994,125.460472 
	C399.077911,128.983841 400.552521,132.476761 401.799316,136.179810 
	C403.135590,142.275818 407.322021,145.350784 412.925415,147.415497 
	C412.677643,152.977600 412.967651,158.191864 411.932770,163.128403 
	C411.036316,167.404800 410.704773,171.225418 412.676636,175.303452 
	C412.452637,179.780853 413.458069,183.429962 418.118103,185.208954 
	C418.441528,185.680695 418.696533,185.873642 419.050659,186.349518 
	C423.816833,192.811386 430.765808,192.551483 437.324799,192.570877 
	C440.546082,192.580414 443.772339,190.907333 447.244507,189.991989 
	C447.492676,189.988251 447.989075,189.983994 448.406921,189.990341 
	C450.216095,190.000229 451.607422,190.003769 453.078491,190.357254 
	C454.439240,191.137115 455.720215,191.567032 457.444977,191.997833 
	C460.256866,192.002609 462.624969,192.006470 465.041626,192.295532 
	C465.408600,192.883575 465.727081,193.186432 466.045532,193.489288 
	C466.365845,192.995987 466.686188,192.502686 467.434570,192.008362 
	C469.575470,192.004684 471.288361,192.002029 473.400818,191.999985 
	C475.868317,191.002411 477.936218,190.004257 480.420227,189.005295 
	C482.222992,189.004410 483.609650,189.004333 485.072449,189.353409 
	C489.819214,192.061951 494.186737,195.786346 500.399994,193.000793 
	C501.866669,193.001205 502.933319,193.001419 504.000000,193.001617 
	C504.905182,193.330948 505.800079,193.913254 506.717163,193.950684 
	C516.505066,194.350082 526.297729,194.631516 536.086548,195.010406 
	C543.380249,195.292709 550.722656,195.243286 557.946411,196.130722 
	C564.626099,196.951324 571.176880,198.820862 577.892212,200.614227 
	C524.312439,201.000000 470.624878,201.000000 416.468658,201.000000 
z"/>
<path fill="#CEDED7" opacity="1.000000" stroke="none" 
	d="
M622.989075,14.116085 
	C624.390381,13.078842 625.695435,11.359222 627.212891,11.145019 
	C630.471191,10.685087 633.839050,11.000885 637.162048,11.000022 
	C645.877869,10.997759 647.431763,9.948153 650.955933,1.355277 
	C679.020874,1.000000 707.041809,1.000000 735.531372,1.000000 
	C735.189758,10.499393 729.017700,14.818310 719.889160,13.133049 
	C715.805908,12.379238 711.427124,13.226850 706.703369,13.888506 
	C702.082642,14.610665 697.684570,13.972709 693.860657,15.169301 
	C688.401489,16.877630 683.554810,16.598310 678.084045,15.210082 
	C673.543457,14.057882 668.460693,15.237193 663.652527,14.896978 
	C657.073181,14.431432 651.912842,16.196077 649.687744,21.764990 
	C645.615723,19.419781 641.990173,16.333080 637.832458,15.201814 
	C633.134033,13.923412 627.957642,14.401726 622.989075,14.116085 
z"/>
<path fill="#BAD0C1" opacity="1.000000" stroke="none" 
	d="
M949.560303,115.003296 
	C950.329285,117.270782 950.947998,119.537033 950.953979,121.804916 
	C951.023132,147.890701 950.999207,173.976715 951.000000,200.531342 
	C948.958313,201.000000 946.916687,201.000000 944.437500,201.000000 
	C944.000183,174.120514 944.071350,147.240631 943.922913,120.361961 
	C943.900940,116.384132 944.830200,114.314926 949.560303,115.003296 
z"/>
<path fill="#B7C5BF" opacity="1.000000" stroke="none" 
	d="
M968.992676,166.005798 
	C968.995117,177.358109 968.997559,188.710388 969.000000,200.531342 
	C967.285645,201.000000 965.571289,201.000000 963.428467,201.000000 
	C963.001160,190.313858 963.002258,179.627716 963.366699,168.464966 
	C965.484253,167.327515 967.238464,166.666656 968.992676,166.005798 
z"/>
<path fill="#FCFDFD" opacity="1.000000" stroke="none" 
	d="
M622.636353,14.257224 
	C627.957642,14.401726 633.134033,13.923412 637.832458,15.201814 
	C641.990173,16.333080 645.615723,19.419781 649.687744,21.764990 
	C651.912842,16.196077 657.073181,14.431432 663.652527,14.896978 
	C668.460693,15.237193 673.543457,14.057882 678.084045,15.210082 
	C683.554810,16.598310 688.401489,16.877630 693.860657,15.169301 
	C697.684570,13.972709 702.082642,14.610665 706.607788,14.282574 
	C710.430786,14.999889 713.870300,15.863937 717.833862,17.144161 
	C719.534912,18.751526 720.711914,19.942715 721.989014,21.367895 
	C722.322632,22.050720 722.556213,22.499556 722.823486,23.371380 
	C722.951782,25.206879 723.046509,26.619387 723.092834,28.431568 
	C717.054626,51.312981 711.118164,73.809151 705.034973,96.265579 
	C703.640442,101.413605 700.017029,104.674469 694.635742,104.908325 
	C687.428406,105.221535 680.196045,104.957771 672.744263,104.837067 
	C672.187805,104.789467 671.861633,104.846542 671.396973,104.592209 
	C670.536560,103.843842 669.814514,103.406883 669.025757,102.621353 
	C667.941467,99.143135 665.981323,99.151070 663.141296,99.980469 
	C656.494873,101.921494 649.730957,103.460159 642.625366,105.106087 
	C640.310181,104.806824 638.384155,104.563202 635.296997,104.172707 
	C638.470520,107.110229 640.622498,109.102119 642.830322,111.457390 
	C643.306946,113.220200 643.727661,114.619614 644.104492,116.459541 
	C642.845032,123.113853 641.629395,129.327667 640.413757,135.541473 
	C640.028625,135.499207 639.643433,135.456924 639.258301,135.414658 
	C640.441528,136.990250 641.624817,138.565842 642.902466,140.482010 
	C643.987183,143.213928 644.977539,145.605255 645.964905,148.460220 
	C645.433289,154.004089 645.883789,159.438629 644.196899,164.099655 
	C638.609314,179.539200 622.582458,186.698776 605.173584,181.920898 
	C600.771179,180.712631 596.921936,179.319427 592.604126,182.461838 
	C591.034241,183.604370 588.094727,183.056671 585.793762,182.958954 
	C582.162354,182.804779 578.544067,182.135880 574.917358,182.111526 
	C560.009766,182.011383 545.099731,181.955292 530.192993,182.109344 
	C517.126892,182.244339 504.064026,182.681747 490.627533,182.936005 
	C486.356537,181.206573 482.457703,179.526733 478.130951,177.662491 
	C469.233276,184.161682 459.099121,184.761307 448.438995,180.598877 
	C447.562469,180.256638 446.312683,179.903778 445.596344,180.266602 
	C438.052032,184.088089 429.943512,182.737534 421.721527,182.866196 
	C419.622681,181.449478 417.818298,180.191833 415.875854,178.655823 
	C414.797607,177.270676 413.857452,176.163910 412.917297,175.057144 
	C410.704773,171.225418 411.036316,167.404800 411.932770,163.128403 
	C412.967651,158.191864 412.677643,152.977600 412.953430,146.975983 
	C412.943939,143.839340 412.943939,141.610641 412.943939,140.250336 
	C408.651855,138.567352 405.339508,137.268524 402.027161,135.969696 
	C400.552521,132.476761 399.077911,128.983841 397.377380,125.213394 
	C397.437073,121.574036 397.722626,118.212181 398.156982,114.116257 
	C398.593781,112.281532 398.881805,111.180870 399.391876,109.882889 
	C400.114899,108.820526 400.615875,107.955482 401.383331,106.914490 
	C401.684601,105.821442 402.124786,104.485115 401.684448,104.059273 
	C399.703369,102.143387 397.472382,100.485909 395.534698,98.901382 
	C392.810730,100.769432 390.053009,104.131401 386.914429,104.535500 
	C377.737122,105.717102 368.257019,106.167603 359.826050,101.197243 
	C356.590973,99.290047 353.972260,99.619881 350.615417,100.482002 
	C343.484772,102.313309 336.183075,103.478638 328.797607,104.903816 
	C328.643707,104.890648 328.343597,104.963982 328.174194,104.765045 
	C327.698975,104.417938 327.393127,104.269760 326.823486,104.066238 
	C326.385193,103.967911 326.210693,103.924927 325.894562,103.605492 
	C324.822754,102.224030 323.892639,101.119026 322.962494,100.014015 
	C322.003113,97.587280 321.043701,95.160545 320.077148,92.359200 
	C322.938080,81.550240 325.806213,71.115875 328.837708,59.940910 
	C330.438782,55.704067 330.197205,52.698387 326.861877,50.246155 
	C325.927277,49.559002 325.537872,48.130272 324.898376,47.041710 
	C324.701935,44.266972 323.383667,40.874210 324.510651,38.828560 
	C328.568451,31.462938 333.165314,24.337210 338.213684,17.612696 
	C339.551422,15.830840 343.204285,15.239345 345.850342,15.088545 
	C354.294159,14.607338 362.764465,14.590397 371.606873,14.237131 
	C381.605255,14.378068 391.233704,14.474177 400.831726,15.064915 
	C405.188416,15.333059 409.471588,16.666487 413.815552,17.339851 
	C415.366882,17.580332 417.048279,17.531096 418.583313,17.204744 
	C421.170685,16.654648 423.646729,15.540032 426.243561,15.082770 
	C434.257416,13.671655 439.872955,16.702723 442.114807,24.173008 
	C453.023651,18.915743 463.271271,13.771736 475.791107,15.601400 
	C481.565796,16.445305 487.752167,15.743498 493.548859,14.658219 
	C496.708618,14.066638 499.443848,11.207623 502.679688,9.227419 
	C507.311584,7.910173 511.638275,6.750758 515.956360,5.560248 
	C523.756958,3.409590 528.640076,5.433579 533.060242,11.951998 
	C534.099365,13.484385 536.561035,14.177355 538.490601,14.951576 
	C541.455017,16.141020 544.499268,17.153675 547.561646,18.067205 
	C549.087585,18.522402 550.804993,19.023190 552.304810,18.759298 
	C558.611938,17.649590 564.822388,15.567736 571.156616,15.134964 
	C580.442261,14.500548 589.809692,14.775768 599.129395,15.071232 
	C602.831360,15.188593 606.492920,16.428301 610.185364,17.087412 
	C611.252136,17.277830 612.438660,17.506247 613.437805,17.232981 
	C616.421631,16.416935 619.339844,15.360763 622.636353,14.257224 
M459.443970,103.518456 
	C462.390472,106.563812 465.123016,106.594261 467.858795,102.765320 
	C466.824524,102.132919 465.903290,101.569656 464.625549,100.446907 
	C462.555420,98.414391 460.485260,96.381874 458.379486,94.314407 
	C455.176636,96.616058 452.104797,98.823540 448.574554,101.034912 
	C448.308533,101.142326 448.042511,101.249733 447.776550,101.357140 
	C447.865448,101.470039 448.025940,101.685928 448.032959,101.681046 
	C448.356873,101.455894 448.667389,101.211494 449.810455,101.073090 
	C452.882385,101.708420 455.954315,102.343750 459.443970,103.518456 
M558.988770,46.440521 
	C562.787354,45.131344 566.511536,43.064297 570.401184,42.682449 
	C576.993408,42.035286 583.690674,42.492687 590.342163,42.385426 
	C591.603760,42.365082 593.486084,42.307354 594.011414,41.536869 
	C597.019714,37.125187 599.704712,32.493095 602.935669,27.224546 
	C591.324890,27.224546 581.012268,26.860537 570.745544,27.388786 
	C566.096741,27.627981 561.539124,29.639200 556.239807,30.943806 
	C541.742371,38.561836 540.855286,53.357365 536.759827,67.138786 
	C543.566284,67.138786 549.798218,67.138786 556.946472,67.331589 
	C563.315979,67.331589 569.685486,67.331589 576.575745,67.331589 
	C574.781433,73.499985 571.681580,76.603874 566.464233,77.110443 
	C562.003540,77.543549 557.508911,77.626610 552.296387,77.566200 
	C548.823120,77.572067 545.341248,77.439980 541.880859,77.654099 
	C540.561279,77.735748 538.735718,78.237152 538.093933,79.189568 
	C535.280762,83.364189 532.816833,87.774124 529.931458,92.590973 
	C538.231201,92.590973 545.627014,92.590973 553.914368,92.762627 
	C555.904724,92.778442 557.897278,92.861771 559.885193,92.799431 
	C576.055420,92.292320 585.872070,85.719910 590.695984,71.615166 
	C592.772400,65.543785 594.029846,59.192318 595.734192,52.562775 
	C595.572815,52.241302 595.341553,52.178982 594.111877,52.211544 
	C581.567017,52.249325 569.022156,52.287106 556.386169,51.565559 
	C557.062805,50.019642 557.739502,48.473724 558.988770,46.440521 
M630.920898,48.616863 
	C632.748230,41.690552 634.575562,34.764240 636.515137,27.412504 
	C633.538086,27.412504 631.274414,27.412504 628.157349,27.219616 
	C622.899475,26.109951 620.518005,28.239723 619.566772,33.571808 
	C618.466492,39.739883 616.366028,45.729553 614.775452,51.521049 
	C605.453308,52.975647 605.534119,61.698620 600.537537,67.312416 
	C604.423645,67.482925 607.169067,67.603394 610.435120,67.746696 
	C609.459900,71.358658 608.652771,74.348061 607.888916,77.177315 
	C602.393860,77.766670 596.264587,85.315254 594.883240,92.683563 
	C614.733765,93.772430 620.696655,89.970444 625.068054,71.207954 
	C625.435974,69.628731 627.665833,68.483315 629.946045,67.339684 
	C636.649963,67.339684 643.353882,67.339684 650.600342,67.339684 
	C648.317810,76.178566 646.318115,83.922218 644.106018,92.488380 
	C648.157837,91.333473 651.258057,90.201874 654.457947,89.596863 
	C659.061279,88.726471 660.970398,86.235260 662.418640,81.651840 
	C664.162292,76.132980 662.119995,67.643219 671.520264,66.542427 
	C671.630066,66.529564 671.722351,66.293365 671.807312,66.152046 
	C674.491821,61.685638 677.174377,57.218094 680.300720,52.012215 
	C676.301208,52.012215 673.506470,52.012215 670.239502,52.012215 
	C672.387329,43.648060 674.429565,35.694817 676.556335,27.412628 
	C671.120972,27.412628 666.357361,27.412628 661.440857,27.412628 
	C659.174561,35.703892 656.958191,43.812546 654.750061,51.890995 
	C646.285278,51.890995 638.167053,51.890995 630.171143,51.230747 
	C630.313416,50.576385 630.455627,49.922024 630.920898,48.616863 
M492.142487,27.217823 
	C490.146271,27.201040 488.098114,26.907902 486.173157,27.269966 
	C484.997467,27.491100 483.315643,28.529408 483.043549,29.524103 
	C478.355408,46.664421 473.661804,63.808365 469.408783,81.059837 
	C467.892273,87.211273 471.218079,91.494537 477.618622,92.220490 
	C482.702179,92.797058 487.884460,92.502975 493.871155,92.764114 
	C501.345734,92.786430 508.831024,92.578194 516.290405,92.926064 
	C520.154846,93.106285 521.829956,91.890404 522.783081,88.108604 
	C526.763916,72.312935 531.049500,56.594067 535.225159,40.847523 
	C536.391846,36.447693 537.564819,32.049503 538.919983,26.954594 
	C531.803040,26.954594 525.580139,26.954594 519.137878,26.954594 
	C519.859802,23.716549 520.458984,21.028841 521.058167,18.341131 
	C520.783264,18.020922 520.508362,17.700712 520.233398,17.380503 
	C514.727905,21.072966 505.969238,18.119644 502.986206,27.404551 
	C499.655151,27.404551 496.339081,27.404551 492.142487,27.217823 
M398.019165,56.292343 
	C400.704285,46.743832 403.389435,37.195316 406.207855,27.172764 
	C386.303558,27.172764 367.162506,27.152613 348.021851,27.229198 
	C347.010101,27.233246 345.563019,27.772949 345.064484,28.544962 
	C342.299286,32.827038 339.765015,37.258274 336.895477,42.067867 
	C340.398254,42.313076 343.136353,42.504753 346.511444,42.741020 
	C342.102692,59.369251 337.836029,75.461540 333.501343,91.810516 
	C347.238495,90.548615 349.769623,88.494934 352.859436,76.669556 
	C353.405426,74.579887 353.945953,72.488228 354.446075,70.387260 
	C355.157166,67.400131 356.807800,66.633064 359.498322,68.088394 
	C359.208099,70.976074 358.749207,73.771591 358.684296,76.576241 
	C358.567871,81.606667 359.384796,87.057724 364.321625,89.010391 
	C369.870056,91.204971 376.118317,91.653862 382.086426,92.726982 
	C382.678986,92.833527 383.707458,92.168617 384.080933,91.576332 
	C386.799988,87.264023 389.403076,82.878563 392.584625,77.620850 
	C389.925995,77.620850 388.325378,77.661240 386.727722,77.609703 
	C385.068878,77.556183 383.399567,77.513046 381.758026,77.292702 
	C375.218506,76.414909 373.954010,74.450142 375.788757,67.359268 
	C384.875275,68.075134 393.381622,66.724152 398.019165,56.292343 
M465.140778,65.969467 
	C467.762207,61.614277 470.383636,57.259087 473.481323,52.112671 
	C469.687897,52.112671 466.939117,52.112671 463.527252,52.112671 
	C465.625153,43.801544 467.577271,36.068035 469.761658,27.414261 
	C464.835571,28.867723 461.090363,30.175758 457.245605,31.042271 
	C454.227112,31.722578 452.848907,33.426422 452.199890,36.307899 
	C451.250580,40.522648 450.174896,44.724728 448.824799,48.824081 
	C448.401123,50.110371 446.955231,51.960434 445.918396,51.999725 
	C438.630157,52.275906 431.326569,52.146187 423.436096,52.146187 
	C425.547211,43.756981 427.497711,36.006046 429.662354,27.404202 
	C424.667511,28.882832 420.711700,29.676418 417.111176,31.271889 
	C415.181671,32.126884 413.064240,34.093483 412.416473,36.023300 
	C410.303986,42.316940 408.787689,48.813831 407.117584,55.252125 
	C404.514130,65.288506 406.196014,67.376106 416.759827,67.378319 
	C420.425446,67.379082 424.091034,67.378433 427.756653,67.378433 
	C432.853821,67.378433 437.951019,67.378441 443.466949,67.378441 
	C442.222473,73.330925 439.173279,76.476891 434.007355,77.014008 
	C429.219757,77.511795 424.368408,77.367050 419.555481,77.670021 
	C418.164642,77.757584 416.175110,77.975403 415.546875,78.884544 
	C412.667969,83.050575 410.174683,87.483124 407.240631,92.318192 
	C416.114868,92.318192 424.040009,92.682503 431.918945,92.234390 
	C444.305664,91.529884 452.790283,84.878235 457.097717,73.390305 
	C458.579376,69.438774 460.458954,66.952225 465.140778,65.969467 
M476.605042,155.836792 
	C478.601318,155.838226 480.636993,156.092407 482.585724,155.788727 
	C486.715240,155.145264 488.430603,157.333557 488.810425,160.897522 
	C489.085449,163.478302 488.864075,166.111984 488.864075,169.420898 
	C495.064880,169.420898 500.804413,169.420898 506.243408,169.420898 
	C499.526245,152.510971 493.105530,136.343170 486.681305,120.176788 
	C483.986847,113.396301 481.319427,112.348373 474.945801,114.883057 
	C469.227478,133.804886 461.984955,151.471359 453.030762,169.406555 
	C458.477478,169.406555 463.532257,169.406555 468.740906,169.406555 
	C467.164642,159.808533 468.151184,154.321808 476.605042,155.836792 
M588.008057,142.455887 
	C587.640564,140.395218 587.273071,138.334549 586.990479,136.749908 
	C580.967102,137.112442 575.603333,137.435272 570.234985,137.758392 
	C570.234985,132.653702 570.234985,128.438721 570.234985,123.443924 
	C576.391541,124.155327 582.056030,124.809883 588.469116,125.550934 
	C588.650391,123.549400 589.084961,120.986801 589.064880,118.427765 
	C589.037659,114.964142 587.546021,113.533134 583.673157,114.246201 
	C579.788574,114.961426 575.723389,114.768967 571.735168,114.830109 
	C566.493225,114.910477 561.249084,114.849846 556.213501,114.849846 
	C558.262024,133.426361 558.550476,151.405945 555.983643,169.905792 
	C566.741211,169.905792 577.618591,169.905792 589.685852,169.905792 
	C589.464539,166.106033 589.233887,162.146942 589.059143,159.146301 
	C581.889099,159.631744 576.081421,160.024948 570.145203,160.426865 
	C570.145203,155.402328 570.145203,151.330688 570.145203,146.641632 
	C575.741699,146.944153 580.991699,147.227936 586.811401,147.542526 
	C587.134827,146.381332 587.565613,144.834869 588.008057,142.455887 
M623.811401,125.386108 
	C625.033813,126.503929 626.256226,127.621758 627.843933,129.073593 
	C628.770386,127.330376 629.806946,125.841988 630.393738,124.193520 
	C632.550537,118.134056 631.870361,116.373482 625.579651,115.003601 
	C621.122192,114.032959 616.330566,113.580650 611.823486,114.091599 
	C604.968262,114.868744 600.386414,119.002640 598.658325,125.950493 
	C596.994202,132.641571 599.560059,137.711990 604.761108,141.616180 
	C607.542603,143.704071 610.682373,145.308212 613.591064,147.235352 
	C615.523987,148.516006 617.756348,149.671906 619.069336,151.460251 
	C620.170227,152.959839 620.998535,155.662506 620.361694,157.156387 
	C619.708984,158.687378 616.989807,160.451187 615.423218,160.243256 
	C612.311157,159.830200 609.214844,158.410004 606.422241,156.850449 
	C605.009338,156.061371 604.272766,154.061142 603.060120,152.371231 
	C601.509949,154.274063 600.691162,155.109253 600.068298,156.071335 
	C596.106995,162.190491 596.827759,165.219818 603.399109,167.939545 
	C606.733154,169.319443 610.358643,170.327133 613.937927,170.716202 
	C622.344788,171.629974 630.134949,166.795807 632.691711,159.594162 
	C635.357483,152.085526 632.720886,145.146912 625.030396,139.908630 
	C622.426147,138.134781 619.611389,136.667572 616.876648,135.088318 
	C611.108276,131.757172 609.406799,128.946869 611.170654,125.607506 
	C612.932861,122.271233 617.020813,121.962814 622.744629,124.736687 
	C622.893921,124.809006 623.031494,124.905518 623.811401,125.386108 
M696.738403,79.198624 
	C701.287048,62.059937 705.835754,44.921246 710.485474,27.401569 
	C705.025208,27.401569 700.256348,27.401569 695.228027,27.401569 
	C689.416870,49.129581 683.640503,70.727333 677.879395,92.268082 
	C678.611084,92.538177 678.764343,92.635643 678.924072,92.647888 
	C693.077332,93.733421 693.077393,93.732971 696.738403,79.198624 
M451.081360,125.379890 
	C456.763336,126.243736 454.086945,121.793808 454.181793,119.832397 
	C454.315613,117.064476 454.400574,113.954094 449.491364,114.148811 
	C438.212036,114.596191 426.896362,114.574043 415.613190,114.202957 
	C412.285828,114.093513 410.831757,115.082130 410.515747,117.930206 
	C410.223419,120.564751 410.453461,123.257271 410.453461,125.519356 
	C416.280792,124.806183 420.934296,124.236671 425.236877,123.710098 
	C425.236877,139.255981 425.236877,153.914246 425.236877,169.134552 
	C429.753174,170.932541 434.903412,171.076279 439.085938,169.106949 
	C439.085938,153.640121 439.085938,139.116776 439.085938,123.722900 
	C442.581421,124.132957 446.441742,124.585815 451.081360,125.379890 
M514.684082,163.734756 
	C514.151794,165.596130 513.619446,167.457504 512.935852,169.848038 
	C514.684204,169.848038 515.808411,169.843994 516.932617,169.848679 
	C525.070618,169.882507 533.216125,169.718216 541.343994,170.023102 
	C546.806763,170.227997 547.764832,169.726288 547.503174,164.244904 
	C547.405640,162.200958 546.687134,160.186661 546.402954,158.863098 
	C539.879333,159.451904 534.057068,159.977417 528.401367,160.487885 
	C528.401367,145.087967 528.401367,130.598648 528.401367,115.303627 
	C523.968872,113.324646 518.894043,113.270546 514.885193,115.199158 
	C514.885193,131.764175 514.885193,147.319244 514.684082,163.734756 
M543.017578,145.414307 
	C543.671631,144.075134 544.825439,142.759598 544.890137,141.392563 
	C545.124451,136.439301 545.197449,131.457153 544.917236,126.509369 
	C544.768372,123.880577 543.768127,121.299995 542.881287,117.553070 
	C538.446899,127.067398 540.554199,135.778290 540.246765,144.265549 
	C540.230530,144.715942 541.535217,145.214188 543.017578,145.414307 
M501.923676,105.045982 
	C499.224182,105.045982 496.524658,105.045982 493.575806,105.045982 
	C495.713745,109.555267 497.522369,113.369904 499.216736,116.943604 
	C501.058197,113.107704 502.905243,109.260262 504.846710,105.216095 
	C504.234436,105.167503 503.469849,105.106827 501.923676,105.045982 
M632.618896,99.040962 
	C632.069946,96.881660 631.520935,94.722351 630.823486,91.979019 
	C629.182922,93.856308 628.084106,95.263832 626.826904,96.511742 
	C625.452515,97.875992 623.931580,99.092606 621.966797,100.819908 
	C625.007629,101.635918 627.468262,102.640694 629.979309,102.788620 
	C630.893982,102.842491 631.928894,100.855682 632.618896,99.040962 
M538.134827,106.545952 
	C539.668030,108.679756 541.201233,110.813553 542.714905,112.920143 
	C543.936218,110.486885 545.158142,108.052376 546.863586,104.654480 
	C543.272339,105.167641 540.555969,105.555794 538.134827,106.545952 
z"/>
<path fill="#D2E0D9" opacity="1.000000" stroke="none" 
	d="
M324.544434,47.130539 
	C325.537872,48.130272 325.927277,49.559002 326.861877,50.246155 
	C330.197205,52.698387 330.438782,55.704067 328.956848,59.584076 
	C324.090088,57.624863 321.999878,51.981907 324.544434,47.130539 
z"/>
<path fill="#C7D8D1" opacity="1.000000" stroke="none" 
	d="
M721.888977,21.133905 
	C720.711914,19.942715 719.534912,18.751526 718.169434,17.306580 
	C718.462402,16.504337 719.076782,15.408035 719.405884,15.487860 
	C726.736816,17.265873 732.321167,21.811958 732.872925,29.980661 
	C733.147522,34.044827 732.602966,38.299545 731.662537,42.287315 
	C727.446411,60.164967 723.121338,78.021431 718.453979,95.785278 
	C717.169556,100.673805 715.235840,105.674751 712.405273,109.805405 
	C708.498657,115.506393 693.754883,118.597641 686.787964,116.406090 
	C680.688721,114.487480 674.533752,112.055885 668.271667,111.578438 
	C663.821167,111.239113 659.074097,113.560143 654.642151,115.190498 
	C653.696838,115.538223 653.223938,118.003632 653.078796,119.544777 
	C652.528259,125.393768 652.123596,131.260010 651.836304,137.128220 
	C651.744812,138.997406 651.794678,141.042755 652.447815,142.752304 
	C657.583191,156.194519 658.538757,169.207352 649.313049,181.482300 
	C642.787964,190.163956 633.442261,193.021835 623.308594,193.894119 
	C619.573730,194.215622 615.741821,193.168274 611.946411,193.080826 
	C605.035889,192.921631 598.119080,193.068787 591.205933,192.990204 
	C563.984863,192.680817 536.764404,192.324615 509.543243,192.021683 
	C507.903900,192.003448 506.261078,192.297119 504.309937,192.723633 
	C502.933319,193.001419 501.866669,193.001205 500.124359,192.737457 
	C497.299164,191.649078 495.149567,190.824234 493.401886,189.998444 
	C494.876678,189.988846 495.949615,189.980194 497.478790,189.975449 
	C501.283966,189.977570 504.632843,189.975769 508.448730,189.982758 
	C513.610474,189.663635 518.305237,189.335724 523.468384,189.006775 
	C544.957825,189.335983 565.978943,189.666229 587.257324,190.256805 
	C589.343140,190.345398 591.171570,190.173691 593.399109,189.999573 
	C594.862549,189.994812 595.926819,189.992447 597.399597,189.936005 
	C602.971008,188.214981 607.754944,189.404221 612.814514,190.985260 
	C617.381226,192.412308 622.553162,194.045914 627.329346,189.990356 
	C628.103394,189.989212 628.545593,189.987457 629.369873,189.939346 
	C631.927124,188.142654 636.355164,190.603745 637.390259,186.008362 
	C643.927368,185.035416 647.301636,180.225800 649.359253,175.464478 
	C652.169983,168.960724 655.450562,162.083771 653.550171,154.528381 
	C651.824158,147.666214 647.209656,141.349884 649.848572,133.688049 
	C649.992249,133.271072 649.308838,132.569244 649.009644,131.669189 
	C649.012512,130.897491 649.016052,130.456635 649.372437,129.928619 
	C650.070801,126.783646 650.422302,123.726471 650.759766,120.667755 
	C651.030090,118.217857 650.692383,113.918716 651.640137,113.615578 
	C657.694519,111.679077 664.739136,108.227440 670.111877,109.818756 
	C678.825012,112.399452 687.288513,113.027092 696.072693,113.002533 
	C705.425293,112.976379 710.145081,110.169037 712.942566,101.313881 
	C716.920959,88.720604 720.248840,75.919548 723.698303,63.164967 
	C724.032654,61.928501 723.268738,60.395004 723.013062,58.669167 
	C723.015869,57.898903 723.020142,57.458858 723.372192,56.938683 
	C726.891968,51.682373 729.212708,46.289608 728.009888,39.669388 
	C728.014709,38.897598 728.018311,38.456581 728.378662,37.934071 
	C732.650452,33.058643 729.401978,22.051767 723.535828,20.411238 
	C723.089111,20.286327 722.442627,20.876257 721.888977,21.133905 
z"/>
<path fill="#CEDED7" opacity="1.000000" stroke="none" 
	d="
M399.169861,110.080215 
	C398.881805,111.180870 398.593781,112.281532 398.154114,113.691238 
	C392.221985,114.333618 386.401855,115.235001 380.672668,114.834610 
	C375.340515,114.461967 370.145905,112.426247 364.814270,111.643433 
	C360.682465,111.036789 356.365295,110.693604 352.252075,111.206963 
	C346.874573,111.878120 341.660309,113.773544 336.295654,114.653946 
	C330.753571,115.563477 321.336121,106.850815 321.302368,101.126297 
	C321.300446,100.802216 321.950409,100.474312 322.629761,100.081100 
	C323.892639,101.119026 324.822754,102.224030 325.887512,103.987938 
	C327.238281,110.088837 331.243988,111.138290 336.408386,110.988525 
	C337.868011,110.988388 338.929596,110.989738 340.408691,110.995697 
	C341.981567,110.914330 343.233643,111.088676 344.276855,110.701027 
	C352.338013,107.705566 360.344788,105.514511 368.368225,110.828827 
	C368.849335,111.147476 369.691742,110.860626 370.326996,111.015488 
	C380.031158,113.381271 389.611877,112.114258 399.169861,110.080215 
z"/>
<path fill="#BAD0C1" opacity="1.000000" stroke="none" 
	d="
M968.995544,165.671371 
	C967.238464,166.666656 965.484253,167.327515 963.367432,167.996628 
	C963.003357,152.007248 962.979858,136.009537 963.026489,120.012032 
	C963.032715,117.859337 962.166870,115.004593 966.028320,115.029716 
	C969.904236,115.054939 968.959473,117.943047 968.968384,120.068672 
	C969.028625,134.399643 969.001465,148.731003 969.004944,163.530807 
	C969.004333,164.445236 969.001404,164.891098 968.995544,165.671371 
z"/>
<path fill="#BFCFC9" opacity="1.000000" stroke="none" 
	d="
M401.799316,136.179810 
	C405.339508,137.268524 408.651855,138.567352 412.943939,140.250336 
	C412.943939,141.610641 412.943939,143.839340 412.915955,146.507538 
	C407.322021,145.350784 403.135590,142.275818 401.799316,136.179810 
z"/>
<path fill="#CADCD5" opacity="1.000000" stroke="none" 
	d="
M446.996338,189.995728 
	C443.772339,190.907333 440.546082,192.580414 437.324799,192.570877 
	C430.765808,192.551483 423.816833,192.811386 419.427246,186.357178 
	C425.176605,187.333588 430.596344,188.654099 436.357086,189.940750 
	C437.796875,189.610153 438.895660,189.313431 440.281952,189.282379 
	C442.711761,189.697281 444.854034,189.846497 446.996338,189.995728 
z"/>
<path fill="#BFCFC9" opacity="1.000000" stroke="none" 
	d="
M436.016052,189.974625 
	C430.596344,188.654099 425.176605,187.333588 419.380249,186.005386 
	C418.696533,185.873642 418.441528,185.680695 418.082886,184.885193 
	C417.289398,182.545731 416.651672,180.739960 416.013916,178.934189 
	C417.818298,180.191833 419.622681,181.449478 421.889679,183.164459 
	C424.568848,184.743835 426.785370,185.865845 429.245544,187.247925 
	C430.661682,187.667145 431.834167,187.826294 433.381744,187.986389 
	C434.506897,187.982452 435.256958,187.977570 436.006683,188.306641 
	C436.009583,189.085297 436.012817,189.529953 436.016052,189.974625 
z"/>
<path fill="#BFCFC9" opacity="1.000000" stroke="none" 
	d="
M447.244507,189.991989 
	C444.854034,189.846497 442.711761,189.697281 440.464783,189.027725 
	C440.912445,187.677765 441.464722,186.848129 442.389709,186.017105 
	C443.507812,186.015213 444.253265,186.014679 445.194092,186.246552 
	C446.259338,186.317902 447.129181,186.156845 448.427612,185.994812 
	C450.571167,185.993637 452.286133,185.993439 454.180695,186.226974 
	C454.911621,186.630478 455.462921,186.800247 456.441650,186.974915 
	C458.579376,186.986710 460.289673,186.993591 462.000397,187.372253 
	C462.007843,188.486603 462.014893,189.229187 461.656006,189.933655 
	C459.857635,189.602356 458.425140,189.309204 456.593689,189.011734 
	C455.130066,189.004990 454.065491,189.002579 452.750580,188.745605 
	C450.996552,188.988693 449.492798,189.486343 447.989075,189.983994 
	C447.989075,189.983994 447.492676,189.988251 447.244507,189.991989 
z"/>
<path fill="#C7D8D1" opacity="1.000000" stroke="none" 
	d="
M456.992676,189.016052 
	C458.425140,189.309204 459.857635,189.602356 462.089905,189.938965 
	C464.920105,189.979416 466.950531,189.976425 469.399261,189.982162 
	C471.210022,189.991272 472.602417,189.991669 473.884216,190.249634 
	C473.516144,191.004623 473.258698,191.502014 473.001221,191.999390 
	C471.288361,192.002029 469.575470,192.004684 467.098938,192.005646 
	C465.887878,192.006088 465.440491,192.008224 464.993103,192.010345 
	C462.624969,192.006470 460.256866,192.002609 457.444458,191.625092 
	C456.997711,190.506332 456.995178,189.761185 456.992676,189.016052 
z"/>
<path fill="#CADCD5" opacity="1.000000" stroke="none" 
	d="
M493.000000,189.999390 
	C495.149567,190.824234 497.299164,191.649078 499.724365,192.737274 
	C494.186737,195.786346 489.819214,192.061951 485.441711,189.359161 
	C487.160645,189.340393 488.586365,189.664978 490.385345,189.991226 
	C491.505737,189.995056 492.252869,189.997223 493.000000,189.999390 
z"/>
<path fill="#C7D8D1" opacity="1.000000" stroke="none" 
	d="
M490.012085,189.989563 
	C488.586365,189.664978 487.160645,189.340393 485.365631,189.010040 
	C483.609650,189.004333 482.222992,189.004410 480.084625,189.002670 
	C478.885620,188.997971 478.438293,188.995087 478.062286,188.659149 
	C479.421143,187.544693 480.708710,186.763290 482.424561,185.985229 
	C484.564301,185.997818 486.275665,186.007050 488.047119,186.338959 
	C488.742157,187.770935 489.377136,188.880249 490.012085,189.989563 
z"/>
<path fill="#CADCD5" opacity="1.000000" stroke="none" 
	d="
M415.875854,178.655823 
	C416.651672,180.739960 417.289398,182.545731 417.962341,184.675278 
	C413.458069,183.429962 412.452637,179.780853 412.676636,175.303452 
	C413.857452,176.163910 414.797607,177.270676 415.875854,178.655823 
z"/>
<path fill="#CADCD5" opacity="1.000000" stroke="none" 
	d="
M477.990967,188.992188 
	C478.438293,188.995087 478.885620,188.997971 479.668518,189.003479 
	C477.936218,190.004257 475.868317,191.002411 473.400818,192.000000 
	C473.258698,191.502014 473.516144,191.004623 474.132385,189.996414 
	C475.657745,189.321121 476.824371,189.156662 477.990967,188.992188 
z"/>
<path fill="#CADCD5" opacity="1.000000" stroke="none" 
	d="
M456.593658,189.011734 
	C456.995178,189.761185 456.997711,190.506332 457.000732,191.624207 
	C455.720215,191.567032 454.439240,191.137115 453.079224,190.105423 
	C453.000427,189.335846 453.000671,189.168015 453.000885,189.000168 
	C454.065491,189.002579 455.130066,189.004990 456.593658,189.011734 
z"/>
<path fill="#C7D8D1" opacity="1.000000" stroke="none" 
	d="
M452.750580,188.745605 
	C453.000671,189.168015 453.000427,189.335846 452.999512,189.755493 
	C451.607422,190.003769 450.216095,190.000229 448.406921,189.990341 
	C449.492798,189.486343 450.996552,188.988693 452.750580,188.745605 
z"/>
<path fill="#CADCD5" opacity="1.000000" stroke="none" 
	d="
M465.041626,192.295532 
	C465.440491,192.008224 465.887878,192.006088 466.670898,192.006683 
	C466.686188,192.502686 466.365845,192.995987 466.045532,193.489288 
	C465.727081,193.186432 465.408600,192.883575 465.041626,192.295532 
z"/>
<path fill="#5B85A1" opacity="1.000000" stroke="none" 
	d="
M397.879089,56.645233 
	C393.381622,66.724152 384.875275,68.075134 375.788757,67.359268 
	C373.954010,74.450142 375.218506,76.414909 381.758026,77.292702 
	C383.399567,77.513046 385.068878,77.556183 386.727722,77.609703 
	C388.325378,77.661240 389.925995,77.620850 392.584625,77.620850 
	C389.403076,82.878563 386.799988,87.264023 384.080933,91.576332 
	C383.707458,92.168617 382.678986,92.833527 382.086426,92.726982 
	C376.118317,91.653862 369.870056,91.204971 364.321625,89.010391 
	C359.384796,87.057724 358.567871,81.606667 358.684296,76.576241 
	C358.749207,73.771591 359.208099,70.976074 359.498322,68.088394 
	C356.807800,66.633064 355.157166,67.400131 354.446075,70.387260 
	C353.945953,72.488228 353.405426,74.579887 352.859436,76.669556 
	C349.769623,88.494934 347.238495,90.548615 333.501343,91.810516 
	C337.836029,75.461540 342.102692,59.369251 346.511444,42.741020 
	C343.136353,42.504753 340.398254,42.313076 336.895477,42.067867 
	C339.765015,37.258274 342.299286,32.827038 345.064484,28.544962 
	C345.563019,27.772949 347.010101,27.233246 348.021851,27.229198 
	C367.162506,27.152613 386.303558,27.172764 406.207855,27.172764 
	C403.389435,37.195316 400.704285,46.743832 397.879089,56.645233 
M367.759277,42.343094 
	C361.013947,42.375099 360.343140,43.199284 360.183533,52.184521 
	C366.774963,52.184521 373.375244,52.020123 379.961395,52.254120 
	C383.237213,52.370506 384.895538,51.319752 385.270752,48.024673 
	C385.468018,46.292236 386.085602,44.607658 386.653259,42.343555 
	C380.238495,42.343555 374.467346,42.343555 367.759277,42.343094 
z"/>
<path fill="#5B85A0" opacity="1.000000" stroke="none" 
	d="
M464.932526,66.297623 
	C460.458954,66.952225 458.579376,69.438774 457.097717,73.390305 
	C452.790283,84.878235 444.305664,91.529884 431.918945,92.234390 
	C424.040009,92.682503 416.114868,92.318192 407.240631,92.318192 
	C410.174683,87.483124 412.667969,83.050575 415.546875,78.884544 
	C416.175110,77.975403 418.164642,77.757584 419.555481,77.670021 
	C424.368408,77.367050 429.219757,77.511795 434.007355,77.014008 
	C439.173279,76.476891 442.222473,73.330925 443.466949,67.378441 
	C437.951019,67.378441 432.853821,67.378433 427.756653,67.378433 
	C424.091034,67.378433 420.425446,67.379082 416.759827,67.378319 
	C406.196014,67.376106 404.514130,65.288506 407.117584,55.252125 
	C408.787689,48.813831 410.303986,42.316940 412.416473,36.023300 
	C413.064240,34.093483 415.181671,32.126884 417.111176,31.271889 
	C420.711700,29.676418 424.667511,28.882832 429.662354,27.404202 
	C427.497711,36.006046 425.547211,43.756981 423.436096,52.146187 
	C431.326569,52.146187 438.630157,52.275906 445.918396,51.999725 
	C446.955231,51.960434 448.401123,50.110371 448.824799,48.824081 
	C450.174896,44.724728 451.250580,40.522648 452.199890,36.307899 
	C452.848907,33.426422 454.227112,31.722578 457.245605,31.042271 
	C461.090363,30.175758 464.835571,28.867723 469.761658,27.414261 
	C467.577271,36.068035 465.625153,43.801544 463.527252,52.112671 
	C466.939117,52.112671 469.687897,52.112671 473.481323,52.112671 
	C470.383636,57.259087 467.762207,61.614277 464.932526,66.297623 
z"/>
<path fill="#557B97" opacity="1.000000" stroke="none" 
	d="
M493.023010,27.404551 
	C496.339081,27.404551 499.655151,27.404551 502.986206,27.404551 
	C505.969238,18.119644 514.727905,21.072966 520.233398,17.380503 
	C520.508362,17.700712 520.783264,18.020922 521.058167,18.341131 
	C520.458984,21.028841 519.859802,23.716549 519.137878,26.954594 
	C525.580139,26.954594 531.803040,26.954594 538.919983,26.954594 
	C537.564819,32.049503 536.391846,36.447693 535.225159,40.847523 
	C531.049500,56.594067 526.763916,72.312935 522.783081,88.108604 
	C521.829956,91.890404 520.154846,93.106285 516.290405,92.926064 
	C508.831024,92.578194 501.345734,92.786430 493.441864,92.242035 
	C493.011169,86.949463 493.009796,82.178970 493.468994,77.324112 
	C495.424927,77.221878 496.920258,77.190872 498.415649,77.188248 
	C510.218262,77.167534 510.226990,77.171539 513.348450,65.540497 
	C515.353271,58.070068 517.327820,50.591526 519.642273,41.889832 
	C510.501434,42.431034 502.342377,42.914108 494.009857,42.988926 
	C493.565277,37.521965 493.294128,32.463257 493.023010,27.404551 
z"/>
<path fill="#44647F" opacity="1.000000" stroke="none" 
	d="
M630.048889,51.890995 
	C638.167053,51.890995 646.285278,51.890995 654.750061,51.890995 
	C656.958191,43.812546 659.174561,35.703892 661.440857,27.412628 
	C666.357361,27.412628 671.120972,27.412628 676.556335,27.412628 
	C674.429565,35.694817 672.387329,43.648060 670.239502,52.012215 
	C673.506470,52.012215 676.301208,52.012215 680.300720,52.012215 
	C677.174377,57.218094 674.491821,61.685638 671.807312,66.152046 
	C671.722351,66.293365 671.630066,66.529564 671.520264,66.542427 
	C662.119995,67.643219 664.162292,76.132980 662.418640,81.651840 
	C660.970398,86.235260 659.061279,88.726471 654.457947,89.596863 
	C651.258057,90.201874 648.157837,91.333473 644.106018,92.488380 
	C646.318115,83.922218 648.317810,76.178566 650.600342,67.339684 
	C643.353882,67.339684 636.649963,67.339684 629.479370,66.764969 
	C629.358154,61.423828 629.703491,56.657413 630.048889,51.890995 
z"/>
<path fill="#59829D" opacity="1.000000" stroke="none" 
	d="
M476.132874,155.836578 
	C468.151184,154.321808 467.164642,159.808533 468.740906,169.406555 
	C463.532257,169.406555 458.477478,169.406555 453.030762,169.406555 
	C461.984955,151.471359 469.227478,133.804886 474.945801,114.883057 
	C481.319427,112.348373 483.986847,113.396301 486.681305,120.176788 
	C493.105530,136.343170 499.526245,152.510971 506.243408,169.420898 
	C500.804413,169.420898 495.064880,169.420898 488.864075,169.420898 
	C488.864075,166.111984 489.085449,163.478302 488.810425,160.897522 
	C488.430603,157.333557 486.715240,155.145264 482.585724,155.788727 
	C480.636993,156.092407 478.601318,155.838226 476.132874,155.836578 
M477.982727,132.872086 
	C476.342346,137.277893 474.701935,141.683701 472.992950,146.273712 
	C476.958405,146.273712 480.158875,146.273712 483.973572,146.273712 
	C482.021820,141.309662 480.280182,136.880035 477.982727,132.872086 
z"/>
<path fill="#50738F" opacity="1.000000" stroke="none" 
	d="
M588.002197,142.872131 
	C587.565613,144.834869 587.134827,146.381332 586.811401,147.542526 
	C580.991699,147.227936 575.741699,146.944153 570.145203,146.641632 
	C570.145203,151.330688 570.145203,155.402328 570.145203,160.426865 
	C576.081421,160.024948 581.889099,159.631744 589.059143,159.146301 
	C589.233887,162.146942 589.464539,166.106033 589.685852,169.905792 
	C577.618591,169.905792 566.741211,169.905792 555.983643,169.905792 
	C558.550476,151.405945 558.262024,133.426361 556.213501,114.849846 
	C561.249084,114.849846 566.493225,114.910477 571.735168,114.830109 
	C575.723389,114.768967 579.788574,114.961426 583.673157,114.246201 
	C587.546021,113.533134 589.037659,114.964142 589.064880,118.427765 
	C589.084961,120.986801 588.650391,123.549400 588.469116,125.550934 
	C582.056030,124.809883 576.391541,124.155327 570.234985,123.443924 
	C570.234985,128.438721 570.234985,132.653702 570.234985,137.758392 
	C575.603333,137.435272 580.967102,137.112442 586.990479,136.749908 
	C587.273071,138.334549 587.640564,140.395218 588.002197,142.872131 
z"/>
<path fill="#4B6C87" opacity="1.000000" stroke="none" 
	d="
M623.492920,125.188431 
	C623.031494,124.905518 622.893921,124.809006 622.744629,124.736687 
	C617.020813,121.962814 612.932861,122.271233 611.170654,125.607506 
	C609.406799,128.946869 611.108276,131.757172 616.876648,135.088318 
	C619.611389,136.667572 622.426147,138.134781 625.030396,139.908630 
	C632.720886,145.146912 635.357483,152.085526 632.691711,159.594162 
	C630.134949,166.795807 622.344788,171.629974 613.937927,170.716202 
	C610.358643,170.327133 606.733154,169.319443 603.399109,167.939545 
	C596.827759,165.219818 596.106995,162.190491 600.068298,156.071335 
	C600.691162,155.109253 601.509949,154.274063 603.060120,152.371231 
	C604.272766,154.061142 605.009338,156.061371 606.422241,156.850449 
	C609.214844,158.410004 612.311157,159.830200 615.423218,160.243256 
	C616.989807,160.451187 619.708984,158.687378 620.361694,157.156387 
	C620.998535,155.662506 620.170227,152.959839 619.069336,151.460251 
	C617.756348,149.671906 615.523987,148.516006 613.591064,147.235352 
	C610.682373,145.308212 607.542603,143.704071 604.761108,141.616180 
	C599.560059,137.711990 596.994202,132.641571 598.658325,125.950493 
	C600.386414,119.002640 604.968262,114.868744 611.823486,114.091599 
	C616.330566,113.580650 621.122192,114.032959 625.579651,115.003601 
	C631.870361,116.373482 632.550537,118.134056 630.393738,124.193520 
	C629.806946,125.841988 628.770386,127.330376 627.843933,129.073593 
	C626.256226,127.621758 625.033813,126.503929 623.492920,125.188431 
z"/>
<path fill="#4D718C" opacity="1.000000" stroke="none" 
	d="
M553.029297,77.864502 
	C557.508911,77.626610 562.003540,77.543549 566.464233,77.110443 
	C571.681580,76.603874 574.781433,73.499985 576.575745,67.331589 
	C569.685486,67.331589 563.315979,67.331589 556.479675,66.761444 
	C556.167664,61.569164 556.322510,56.947025 556.477295,52.324883 
	C569.022156,52.287106 581.567017,52.249325 594.648926,52.421097 
	C595.312073,52.787605 595.469910,52.900089 595.659424,52.968102 
	C594.029846,59.192318 592.772400,65.543785 590.695984,71.615166 
	C585.872070,85.719910 576.055420,92.292320 559.885193,92.799431 
	C557.897278,92.861771 555.904724,92.778442 553.463928,92.237755 
	C553.018738,87.096756 553.024048,82.480629 553.029297,77.864502 
z"/>
<path fill="#4A6C86" opacity="1.000000" stroke="none" 
	d="
M630.109985,51.560871 
	C629.703491,56.657413 629.358154,61.423828 629.021729,66.663300 
	C627.665833,68.483315 625.435974,69.628731 625.068054,71.207954 
	C620.696655,89.970444 614.733765,93.772430 594.883240,92.683563 
	C596.264587,85.315254 602.393860,77.766670 607.888916,77.177315 
	C608.652771,74.348061 609.459900,71.358658 610.435120,67.746696 
	C607.169067,67.603394 604.423645,67.482925 600.537537,67.312416 
	C605.534119,61.698620 605.453308,52.975647 614.775452,51.521049 
	C616.366028,45.729553 618.466492,39.739883 619.566772,33.571808 
	C620.518005,28.239723 622.899475,26.109951 628.583618,27.757240 
	C629.006226,33.684750 628.881714,39.078922 629.072449,44.461922 
	C629.129822,46.079823 630.064880,47.666622 630.597900,49.267670 
	C630.455627,49.922024 630.313416,50.576385 630.109985,51.560871 
z"/>
<path fill="#59819D" opacity="1.000000" stroke="none" 
	d="
M493.008423,77.408478 
	C493.009796,82.178970 493.011169,86.949463 493.017761,92.157707 
	C487.884460,92.502975 482.702179,92.797058 477.618622,92.220490 
	C471.218079,91.494537 467.892273,87.211273 469.408783,81.059837 
	C473.661804,63.808365 478.355408,46.664421 483.043549,29.524103 
	C483.315643,28.529408 484.997467,27.491100 486.173157,27.269966 
	C488.098114,26.907902 490.146271,27.201040 492.582764,27.311188 
	C493.294128,32.463257 493.565277,37.521965 494.009827,43.369492 
	C491.340729,55.073406 488.498230,65.988495 485.524261,77.408478 
	C488.513885,77.408478 490.761139,77.408478 493.008423,77.408478 
z"/>
<path fill="#415F79" opacity="1.000000" stroke="none" 
	d="
M696.590637,79.581512 
	C693.077393,93.732971 693.077332,93.733421 678.924072,92.647888 
	C678.764343,92.635643 678.611084,92.538177 677.879395,92.268082 
	C683.640503,70.727333 689.416870,49.129581 695.228027,27.401569 
	C700.256348,27.401569 705.025208,27.401569 710.485474,27.401569 
	C705.835754,44.921246 701.287048,62.059937 696.590637,79.581512 
z"/>
<path fill="#5B85A0" opacity="1.000000" stroke="none" 
	d="
M450.691711,125.209282 
	C446.441742,124.585815 442.581421,124.132957 439.085938,123.722900 
	C439.085938,139.116776 439.085938,153.640121 439.085938,169.106949 
	C434.903412,171.076279 429.753174,170.932541 425.236877,169.134552 
	C425.236877,153.914246 425.236877,139.255981 425.236877,123.710098 
	C420.934296,124.236671 416.280792,124.806183 410.453461,125.519356 
	C410.453461,123.257271 410.223419,120.564751 410.515747,117.930206 
	C410.831757,115.082130 412.285828,114.093513 415.613190,114.202957 
	C426.896362,114.574043 438.212036,114.596191 449.491364,114.148811 
	C454.400574,113.954094 454.315613,117.064476 454.181793,119.832397 
	C454.086945,121.793808 456.763336,126.243736 450.691711,125.209282 
z"/>
<path fill="#557B97" opacity="1.000000" stroke="none" 
	d="
M514.784668,163.304535 
	C514.885193,147.319244 514.885193,131.764175 514.885193,115.199158 
	C518.894043,113.270546 523.968872,113.324646 528.401367,115.303627 
	C528.401367,130.598648 528.401367,145.087967 528.401367,160.487885 
	C534.057068,159.977417 539.879333,159.451904 546.402954,158.863098 
	C546.687134,160.186661 547.405640,162.200958 547.503174,164.244904 
	C547.764832,169.726288 546.806763,170.227997 541.343994,170.023102 
	C533.216125,169.718216 525.070618,169.882507 516.932617,169.848679 
	C515.808411,169.843994 514.684204,169.848038 512.935852,169.848038 
	C513.619446,167.457504 514.151794,165.596130 514.784668,163.304535 
z"/>
<path fill="#B0BDB8" opacity="1.000000" stroke="none" 
	d="
M490.999756,182.985596 
	C504.064026,182.681747 517.126892,182.244339 530.192993,182.109344 
	C545.099731,181.955292 560.009766,182.011383 574.917358,182.111526 
	C578.544067,182.135880 582.162354,182.804779 585.793762,182.958954 
	C588.094727,183.056671 591.034241,183.604370 592.604126,182.461838 
	C596.921936,179.319427 600.771179,180.712631 605.173584,181.920898 
	C622.582458,186.698776 638.609314,179.539200 644.196899,164.099655 
	C645.883789,159.438629 645.433289,154.004089 646.342285,148.461548 
	C647.476379,148.003616 648.230103,148.007996 649.154907,148.392700 
	C649.541687,155.509842 649.757263,162.246643 649.644043,169.048859 
	C648.214355,170.746902 647.113525,172.379547 646.001831,174.357452 
	C644.997986,175.805084 644.005127,176.907440 642.717712,178.156464 
	C641.614624,179.534286 640.806091,180.765427 639.679932,182.032593 
	C638.574890,182.712418 637.787415,183.356216 636.686768,184.050293 
	C635.911133,184.726471 635.448792,185.352371 634.588867,185.982651 
	C633.132141,185.996613 632.072876,186.006195 630.598755,186.072021 
	C623.786499,186.421814 617.389160,186.715363 610.534302,187.006775 
	C606.719604,186.995941 603.362366,186.987244 599.734863,186.720703 
	C595.871582,186.641388 592.275574,187.018860 588.686096,186.964417 
	C571.880188,186.709488 555.077332,186.238144 538.271057,186.035828 
	C525.413513,185.881042 512.552429,185.992859 499.693359,186.059097 
	C498.793976,186.063736 497.897705,186.674271 496.597443,187.001694 
	C494.464752,186.659912 492.734650,186.319473 491.003540,185.604950 
	C491.001648,184.482437 491.000702,183.734024 490.999756,182.985596 
z"/>
<path fill="#4D718C" opacity="1.000000" stroke="none" 
	d="
M556.940125,30.846519 
	C561.539124,29.639200 566.096741,27.627981 570.745544,27.388786 
	C581.012268,26.860537 591.324890,27.224546 602.935669,27.224546 
	C599.704712,32.493095 597.019714,37.125187 594.011414,41.536869 
	C593.486084,42.307354 591.603760,42.365082 590.342163,42.385426 
	C583.690674,42.492687 576.993408,42.035286 570.401184,42.682449 
	C566.511536,43.064297 562.787354,45.131344 558.516541,46.230244 
	C557.676270,40.962151 557.308167,35.904335 556.940125,30.846519 
z"/>
<path fill="#ACBAB6" opacity="1.000000" stroke="none" 
	d="
M672.974426,104.941750 
	C680.196045,104.957771 687.428406,105.221535 694.635742,104.908325 
	C700.017029,104.674469 703.640442,101.413605 705.034973,96.265579 
	C711.118164,73.809151 717.054626,51.312981 723.465332,28.493658 
	C727.844788,31.526979 725.765747,35.638863 725.269348,39.546745 
	C724.868530,42.702938 724.414368,45.852356 723.984314,49.333904 
	C723.981262,50.101929 723.977783,50.540829 723.620728,51.065979 
	C722.512268,53.768551 721.757324,56.384865 720.999023,59.398445 
	C720.986328,60.855061 720.976929,61.914413 720.606750,63.037308 
	C719.491943,65.733078 718.737854,68.365318 717.983887,71.369568 
	C717.978149,72.485588 717.972412,73.229576 717.687988,74.018005 
	C717.265625,74.708488 717.121948,75.354523 716.978638,76.330261 
	C716.977478,77.099564 716.975891,77.539162 716.694824,78.021637 
	C716.272217,78.709778 716.129089,79.355034 715.984497,80.330338 
	C715.980530,81.100433 715.978088,81.540489 715.623169,82.060196 
	C714.183472,85.428703 713.096313,88.717545 712.007080,92.379044 
	C711.998413,93.496979 711.991882,94.242249 711.648193,95.063858 
	C710.869263,97.093590 710.427429,99.046982 709.950317,101.323257 
	C709.271667,102.759407 708.628174,103.872673 707.629883,105.036713 
	C703.843506,107.050087 700.411926,109.012680 696.584045,110.977219 
	C695.130859,110.978844 694.073975,110.978539 692.903381,110.595215 
	C691.310669,109.808334 689.853210,109.273453 688.348511,109.025299 
	C683.906433,108.292702 679.445557,107.673531 674.744019,107.007355 
	C674.496033,107.004730 674.000000,106.998795 673.885071,106.735825 
	C673.504883,105.962486 673.239685,105.452118 672.974426,104.941750 
z"/>
<path fill="#527792" opacity="1.000000" stroke="none" 
	d="
M556.589966,30.895161 
	C557.308167,35.904335 557.676270,40.962151 558.230225,46.473885 
	C557.739502,48.473724 557.062805,50.019642 556.431763,51.945221 
	C556.322510,56.947025 556.167664,61.569164 556.021484,66.665047 
	C549.798218,67.138786 543.566284,67.138786 536.759827,67.138786 
	C540.855286,53.357365 541.742371,38.561836 556.589966,30.895161 
z"/>
<path fill="#BBC5BE" opacity="1.000000" stroke="none" 
	d="
M339.991150,110.991081 
	C338.929596,110.989738 337.868011,110.988388 336.326965,110.642441 
	C333.548798,108.504219 331.250153,106.710602 328.951508,104.916992 
	C336.183075,103.478638 343.484772,102.313309 350.615417,100.482002 
	C353.972260,99.619881 356.590973,99.290047 359.826050,101.197243 
	C368.257019,106.167603 377.737122,105.717102 386.914429,104.535500 
	C390.053009,104.131401 392.810730,100.769432 395.534698,98.901382 
	C397.472382,100.485909 399.703369,102.143387 401.684448,104.059273 
	C402.124786,104.485115 401.684601,105.821442 400.951172,106.885712 
	C398.460266,107.224472 396.497986,107.008400 394.903320,107.673553 
	C384.245758,112.118851 374.019623,110.343193 363.703705,106.311195 
	C360.973907,105.244247 357.577881,105.048126 354.654602,105.509377 
	C350.487183,106.166908 346.450958,107.731071 342.411713,109.068192 
	C341.493317,109.372208 340.792236,110.332733 339.991150,110.991081 
z"/>
<path fill="#527792" opacity="1.000000" stroke="none" 
	d="
M552.662842,77.715347 
	C553.024048,82.480629 553.018738,87.096756 553.018188,92.151932 
	C545.627014,92.590973 538.231201,92.590973 529.931458,92.590973 
	C532.816833,87.774124 535.280762,83.364189 538.093933,79.189568 
	C538.735718,78.237152 540.561279,77.735748 541.880859,77.654099 
	C545.341248,77.439980 548.823120,77.572067 552.662842,77.715347 
z"/>
<path fill="#B3BEB8" opacity="1.000000" stroke="none" 
	d="
M490.627563,182.936005 
	C491.000702,183.734024 491.001648,184.482437 490.671021,185.609528 
	C489.896149,185.985565 489.452881,185.982956 488.923767,185.622894 
	C483.971405,182.058304 479.489105,182.312347 475.581665,185.996429 
	C473.785034,186.008240 472.403442,186.016861 470.620605,186.075043 
	C467.479614,186.416580 464.739807,186.708527 462.000000,187.000458 
	C460.289673,186.993591 458.579376,186.986710 456.399414,186.696411 
	C455.286865,186.273071 454.643982,186.133148 454.001099,185.993225 
	C452.286133,185.993439 450.571167,185.993637 448.232910,185.760925 
	C446.739319,185.690048 445.868988,185.852097 444.998688,186.014160 
	C444.253265,186.014679 443.507812,186.015213 442.012634,186.011520 
	C439.510956,186.662415 437.759003,187.317535 436.007050,187.972656 
	C435.256958,187.977570 434.506897,187.982452 433.310852,187.655594 
	C431.577271,187.211838 430.289581,187.099838 429.001923,186.987854 
	C426.785370,185.865845 424.568848,184.743835 422.184143,183.323547 
	C429.943512,182.737534 438.052032,184.088089 445.596344,180.266602 
	C446.312683,179.903778 447.562469,180.256638 448.438995,180.598877 
	C459.099121,184.761307 469.233276,184.161682 478.130951,177.662491 
	C482.457703,179.526733 486.356537,181.206573 490.627563,182.936005 
z"/>
<path fill="#C7D8D1" opacity="1.000000" stroke="none" 
	d="
M340.408691,110.995697 
	C340.792236,110.332733 341.493317,109.372208 342.411713,109.068192 
	C346.450958,107.731071 350.487183,106.166908 354.654602,105.509377 
	C357.577881,105.048126 360.973907,105.244247 363.703705,106.311195 
	C374.019623,110.343193 384.245758,112.118851 394.903320,107.673553 
	C396.497986,107.008400 398.460266,107.224472 400.684631,107.061661 
	C400.615875,107.955482 400.114899,108.820526 399.391907,109.882889 
	C389.611877,112.114258 380.031158,113.381271 370.326996,111.015488 
	C369.691742,110.860626 368.849335,111.147476 368.368225,110.828827 
	C360.344788,105.514511 352.338013,107.705566 344.276855,110.701027 
	C343.233643,111.088676 341.981567,110.914330 340.408691,110.995697 
z"/>
<path fill="#B3BEB8" opacity="1.000000" stroke="none" 
	d="
M542.621277,145.552231 
	C541.535217,145.214188 540.230530,144.715942 540.246765,144.265549 
	C540.554199,135.778290 538.446899,127.067398 542.881287,117.553070 
	C543.768127,121.299995 544.768372,123.880577 544.917236,126.509369 
	C545.197449,131.457153 545.124451,136.439301 544.890137,141.392563 
	C544.825439,142.759598 543.671631,144.075134 542.621277,145.552231 
z"/>
<path fill="#44647F" opacity="1.000000" stroke="none" 
	d="
M630.759399,48.942268 
	C630.064880,47.666622 629.129822,46.079823 629.072449,44.461922 
	C628.881714,39.078922 629.006226,33.684750 629.010315,27.853683 
	C631.274414,27.412504 633.538086,27.412504 636.515137,27.412504 
	C634.575562,34.764240 632.748230,41.690552 630.759399,48.942268 
z"/>
<path fill="#B0BDB8" opacity="1.000000" stroke="none" 
	d="
M642.808105,140.141418 
	C641.624817,138.565842 640.441528,136.990250 639.258301,135.414658 
	C639.643433,135.456924 640.028625,135.499207 640.413757,135.541473 
	C641.629395,129.327667 642.845032,123.113853 644.457764,116.453537 
	C645.565002,116.008430 646.275146,116.009827 646.988525,116.384003 
	C646.996094,117.502983 647.000488,118.249191 647.002258,119.459076 
	C646.999756,123.948296 646.999878,127.973846 646.952637,132.362701 
	C646.603516,134.150940 646.301697,135.575867 645.668823,137.062408 
	C644.494446,138.129837 643.651245,139.135620 642.808105,140.141418 
z"/>
<path fill="#ACBAB6" opacity="1.000000" stroke="none" 
	d="
M643.014648,105.161728 
	C649.730957,103.460159 656.494873,101.921494 663.141296,99.980469 
	C665.981323,99.151070 667.941467,99.143135 668.645569,102.631607 
	C667.220398,103.656990 666.108704,104.323563 664.622742,104.992302 
	C663.499756,104.996864 662.751099,104.999268 661.630249,105.002327 
	C660.171265,105.666283 659.084412,106.329567 657.561096,106.995155 
	C655.088135,107.002815 653.051575,107.008179 650.634033,107.060501 
	C647.499268,107.727409 644.373169,109.732368 643.014648,105.161728 
z"/>
<path fill="#B7C5BF" opacity="1.000000" stroke="none" 
	d="
M502.314453,105.046066 
	C503.469849,105.106827 504.234436,105.167503 504.846710,105.216095 
	C502.905243,109.260262 501.058197,113.107704 499.216736,116.943604 
	C497.522369,113.369904 495.713745,109.555267 493.575806,105.045982 
	C496.524658,105.045982 499.224182,105.045982 502.314453,105.046066 
z"/>
<path fill="#B3BEB8" opacity="1.000000" stroke="none" 
	d="
M449.032990,101.031021 
	C452.104797,98.823540 455.176636,96.616058 458.379486,94.314407 
	C460.485260,96.381874 462.555420,98.414391 464.481842,100.866669 
	C462.567505,101.850655 460.796875,102.414864 459.026245,102.979080 
	C455.954315,102.343750 452.882385,101.708420 449.407196,101.037567 
	C449.003937,101.002037 449.032990,101.031029 449.032990,101.031021 
z"/>
<path fill="#ACBAB6" opacity="1.000000" stroke="none" 
	d="
M632.763916,99.420425 
	C631.928894,100.855682 630.893982,102.842491 629.979309,102.788620 
	C627.468262,102.640694 625.007629,101.635918 621.966797,100.819908 
	C623.931580,99.092606 625.452515,97.875992 626.826904,96.511742 
	C628.084106,95.263832 629.182922,93.856308 630.823486,91.979019 
	C631.520935,94.722351 632.069946,96.881660 632.763916,99.420425 
z"/>
<path fill="#B7C5BF" opacity="1.000000" stroke="none" 
	d="
M723.983887,49.004784 
	C724.414368,45.852356 724.868530,42.702938 725.269348,39.546745 
	C725.765747,35.638863 727.844788,31.526979 723.513794,28.093983 
	C723.046509,26.619387 722.951782,25.206879 723.202942,23.427465 
	C724.317078,23.626007 725.624207,24.081373 725.765869,24.774822 
	C726.661560,29.159048 727.299133,33.596016 728.021912,38.015568 
	C728.018311,38.456581 728.014709,38.897598 727.734436,39.895767 
	C726.299805,43.303539 725.141846,46.154163 723.983887,49.004784 
z"/>
<path fill="#B7C5BF" opacity="1.000000" stroke="none" 
	d="
M651.015076,107.013519 
	C653.051575,107.008179 655.088135,107.002815 657.815674,107.000084 
	C658.676453,107.007530 658.846130,107.012352 658.933472,107.368774 
	C656.471985,108.687332 653.851013,109.302704 651.784607,110.724220 
	C649.875793,112.037285 648.561462,114.214569 646.985352,116.011230 
	C646.275146,116.009827 645.565002,116.008430 644.501587,116.013031 
	C643.727661,114.619614 643.306946,113.220200 643.232422,111.422394 
	C646.057373,109.687172 648.536194,108.350342 651.015076,107.013519 
z"/>
<path fill="#BFCFC9" opacity="1.000000" stroke="none" 
	d="
M728.378662,37.934074 
	C727.299133,33.596016 726.661560,29.159048 725.765869,24.774822 
	C725.624207,24.081373 724.317078,23.626007 723.169312,23.004475 
	C722.556213,22.499556 722.322632,22.050720 721.989014,21.367895 
	C722.442627,20.876257 723.089111,20.286327 723.535828,20.411238 
	C729.401978,22.051767 732.650452,33.058643 728.378662,37.934074 
z"/>
<path fill="#B0BDB8" opacity="1.000000" stroke="none" 
	d="
M650.634033,107.060486 
	C648.536194,108.350342 646.057373,109.687172 643.176514,111.059006 
	C640.622498,109.102119 638.470520,107.110229 635.296997,104.172707 
	C638.384155,104.563202 640.310181,104.806824 642.625366,105.106079 
	C644.373169,109.732368 647.499268,107.727409 650.634033,107.060486 
z"/>
<path fill="#B3BEB8" opacity="1.000000" stroke="none" 
	d="
M537.987183,106.244949 
	C540.555969,105.555794 543.272339,105.167641 546.863586,104.654480 
	C545.158142,108.052376 543.936218,110.486885 542.714905,112.920143 
	C541.201233,110.813553 539.668030,108.679756 537.987183,106.244949 
z"/>
<path fill="#B7C5BF" opacity="1.000000" stroke="none" 
	d="
M642.902466,140.481995 
	C643.651245,139.135620 644.494446,138.129837 645.670837,137.471756 
	C646.997314,141.217087 647.990540,144.614731 648.983765,148.012375 
	C648.230103,148.007996 647.476379,148.003616 646.345337,147.997910 
	C644.977539,145.605255 643.987183,143.213928 642.902466,140.481995 
z"/>
<path fill="#BFCFC9" opacity="1.000000" stroke="none" 
	d="
M459.235107,103.248764 
	C460.796875,102.414864 462.567505,101.850655 464.660095,101.146416 
	C465.903290,101.569656 466.824524,102.132919 467.858795,102.765320 
	C465.123016,106.594261 462.390472,106.563812 459.235107,103.248764 
z"/>
<path fill="#C7D8D1" opacity="1.000000" stroke="none" 
	d="
M328.797607,104.903824 
	C331.250153,106.710602 333.548798,108.504219 335.928894,110.643921 
	C331.243988,111.138290 327.238281,110.088837 326.029175,104.264397 
	C326.210693,103.924927 326.385193,103.967911 326.973907,104.277664 
	C327.706604,104.684280 328.025116,104.824127 328.343597,104.963974 
	C328.343597,104.963982 328.643707,104.890648 328.797607,104.903824 
z"/>
<path fill="#B7C5BF" opacity="1.000000" stroke="none" 
	d="
M662.002441,105.001663 
	C662.751099,104.999268 663.499756,104.996864 665.081299,104.995255 
	C667.787903,104.965233 669.661621,104.934425 671.535400,104.903625 
	C671.861633,104.846542 672.187805,104.789467 672.744263,104.837067 
	C673.239685,105.452118 673.504883,105.962486 673.421936,106.737656 
	C669.049988,107.003006 665.026245,107.003555 661.113892,106.747002 
	C661.484314,105.993820 661.743347,105.497742 662.002441,105.001663 
z"/>
<path fill="#B0BDB8" opacity="1.000000" stroke="none" 
	d="
M671.396973,104.592209 
	C669.661621,104.934425 667.787903,104.965233 665.455566,104.993095 
	C666.108704,104.323563 667.220398,103.656990 668.712219,102.980164 
	C669.814514,103.406883 670.536560,103.843842 671.396973,104.592209 
z"/>
<path fill="#B3BEB8" opacity="1.000000" stroke="none" 
	d="
M448.991699,100.985672 
	C448.667389,101.211494 448.356873,101.455894 448.032959,101.681046 
	C448.025940,101.685928 447.865448,101.470039 447.776550,101.357140 
	C448.042511,101.249733 448.308533,101.142326 448.803772,101.032974 
	C449.032990,101.031029 449.003937,101.002037 448.991699,100.985672 
z"/>
<path fill="#BBC5BE" opacity="1.000000" stroke="none" 
	d="
M328.174194,104.765045 
	C328.025116,104.824127 327.706604,104.684280 327.237732,104.333008 
	C327.393127,104.269760 327.698975,104.417938 328.174194,104.765045 
z"/>
<path fill="#527792" opacity="1.000000" stroke="none" 
	d="
M595.696777,52.765442 
	C595.469910,52.900089 595.312073,52.787605 595.113159,52.503231 
	C595.341553,52.178982 595.572815,52.241302 595.696777,52.765442 
z"/>
<path fill="#BFCFC9" opacity="1.000000" stroke="none" 
	d="
M661.002502,107.004105 
	C665.026245,107.003555 669.049988,107.003006 673.536865,107.000626 
	C674.000000,106.998795 674.496033,107.004730 674.817261,107.360733 
	C676.776794,108.750008 678.336975,110.484703 680.069031,110.677917 
	C684.343018,111.154694 688.695923,110.924332 693.017090,110.978226 
	C694.073975,110.978539 695.130859,110.978844 696.989990,110.985992 
	C702.415955,111.071220 705.916260,109.243423 707.984619,104.985931 
	C708.628174,103.872673 709.271667,102.759407 710.228210,101.097305 
	C711.022644,98.694817 711.504028,96.841171 711.985352,94.987534 
	C711.991882,94.242249 711.998413,93.496979 712.359619,92.294724 
	C713.801392,88.552002 714.888489,85.266273 715.975708,81.980537 
	C715.978088,81.540489 715.980530,81.100433 716.220825,80.151024 
	C716.630554,79.087364 716.802429,78.533066 716.974243,77.978760 
	C716.975891,77.539162 716.977478,77.099564 717.216492,76.151062 
	C717.624817,75.085960 717.795715,74.529762 717.966614,73.973572 
	C717.972412,73.229576 717.978149,72.485588 718.347900,71.281891 
	C719.463806,68.206047 720.215637,65.589905 720.967529,62.973763 
	C720.976929,61.914413 720.986328,60.855061 721.334351,59.398655 
	C722.120178,59.000866 722.567383,59.000130 723.014648,58.999397 
	C723.268738,60.395004 724.032654,61.928501 723.698303,63.164967 
	C720.248840,75.919548 716.920959,88.720604 712.942566,101.313881 
	C710.145081,110.169037 705.425293,112.976379 696.072693,113.002533 
	C687.288513,113.027092 678.825012,112.399452 670.111877,109.818756 
	C664.739136,108.227440 657.694519,111.679077 651.640137,113.615578 
	C650.692383,113.918716 651.030090,118.217857 650.759766,120.667755 
	C650.422302,123.726471 650.070801,126.783646 649.365356,129.471649 
	C647.979309,125.804100 651.174316,121.670883 647.004883,118.995392 
	C647.000488,118.249191 646.996094,117.502983 646.988525,116.384010 
	C648.561462,114.214569 649.875793,112.037285 651.784607,110.724220 
	C653.851013,109.302704 656.471985,108.687332 659.264404,107.365440 
	C660.119263,107.008377 660.560852,107.006241 661.002502,107.004105 
z"/>
<path fill="#B7C5BF" opacity="1.000000" stroke="none" 
	d="
M497.000000,187.003052 
	C497.897705,186.674271 498.793976,186.063736 499.693359,186.059097 
	C512.552429,185.992859 525.413513,185.881042 538.271057,186.035828 
	C555.077332,186.238144 571.880188,186.709488 588.686096,186.964417 
	C592.275574,187.018860 595.871582,186.641388 599.523926,186.969986 
	C598.719238,188.314743 597.855225,189.152420 596.991150,189.990082 
	C595.926819,189.992447 594.862549,189.994812 593.140625,189.740814 
	C590.655396,189.655121 588.827698,189.825806 587.000000,189.996490 
	C565.978943,189.666229 544.957825,189.335983 523.161377,188.727814 
	C518.695007,188.300705 514.999329,187.990021 511.316040,188.099167 
	C510.187073,188.132614 509.092224,189.316772 507.981750,189.973999 
	C504.632843,189.975769 501.283966,189.977570 497.472900,189.604980 
	C497.007202,188.488083 497.003601,187.745575 497.000000,187.003052 
z"/>
<path fill="#BFCFC9" opacity="1.000000" stroke="none" 
	d="
M649.154907,148.392700 
	C647.990540,144.614731 646.997314,141.217087 646.001953,137.410126 
	C646.301697,135.575867 646.603516,134.150940 647.287598,132.363251 
	C648.116760,132.000320 648.563599,132.000153 649.010376,132.000000 
	C649.308838,132.569244 649.992249,133.271072 649.848572,133.688049 
	C647.209656,141.349884 651.824158,147.666214 653.550171,154.528381 
	C655.450562,162.083771 652.169983,168.960724 649.359253,175.464478 
	C647.301636,180.225800 643.927368,185.035416 637.385742,186.003357 
	C637.000732,186.000610 636.995117,185.995117 636.996826,185.662628 
	C636.999084,184.886765 636.999512,184.443375 637.000000,184.000000 
	C637.787415,183.356216 638.574890,182.712418 640.032593,181.985413 
	C641.472595,180.604736 642.242432,179.307266 643.012207,178.009796 
	C644.005127,176.907440 644.997986,175.805084 646.344727,174.307983 
	C647.789978,172.269974 648.881409,170.626709 649.972839,168.983444 
	C649.757263,162.246643 649.541687,155.509842 649.154907,148.392700 
z"/>
<path fill="#BFCFC9" opacity="1.000000" stroke="none" 
	d="
M597.399597,189.936005 
	C597.855225,189.152420 598.719238,188.314743 599.794250,187.227814 
	C603.362366,186.987244 606.719604,186.995941 610.645081,187.391953 
	C613.002136,188.186905 614.772217,188.741547 616.583557,188.970749 
	C620.042480,189.408386 623.524963,189.660568 626.997620,189.989746 
	C622.553162,194.045914 617.381226,192.412308 612.814514,190.985260 
	C607.754944,189.404221 602.971008,188.214981 597.399597,189.936005 
z"/>
<path fill="#B7C5BF" opacity="1.000000" stroke="none" 
	d="
M627.329346,189.990356 
	C623.524963,189.660568 620.042480,189.408386 616.583557,188.970749 
	C614.772217,188.741547 613.002136,188.186905 611.102600,187.394073 
	C617.389160,186.715363 623.786499,186.421814 630.537842,186.393799 
	C630.257202,187.768127 629.622559,188.876907 628.987854,189.985687 
	C628.545593,189.987457 628.103394,189.989212 627.329346,189.990356 
z"/>
<path fill="#BFCFC9" opacity="1.000000" stroke="none" 
	d="
M723.984375,49.333908 
	C725.141846,46.154163 726.299805,43.303539 727.733276,40.226540 
	C729.212708,46.289608 726.891968,51.682373 723.373230,56.552376 
	C723.342468,54.490719 723.658447,52.735226 723.974365,50.979729 
	C723.977783,50.540829 723.981262,50.101929 723.984375,49.333908 
z"/>
<path fill="#BFCFC9" opacity="1.000000" stroke="none" 
	d="
M508.448730,189.982773 
	C509.092224,189.316772 510.187073,188.132614 511.316040,188.099167 
	C514.999329,187.990021 518.695007,188.300705 522.692993,188.728867 
	C518.305237,189.335724 513.610474,189.663635 508.448730,189.982773 
z"/>
<path fill="#BFCFC9" opacity="1.000000" stroke="none" 
	d="
M496.597443,187.001709 
	C497.003601,187.745575 497.007202,188.488083 497.016663,189.601074 
	C495.949615,189.980194 494.876678,189.988846 493.401886,189.998444 
	C492.252869,189.997223 491.505737,189.995056 490.385345,189.991226 
	C489.377136,188.880249 488.742157,187.770935 488.302826,186.329956 
	C488.668854,185.992310 488.839203,185.986328 489.009583,185.980347 
	C489.452881,185.982956 489.896149,185.985565 490.671997,185.983612 
	C492.734650,186.319473 494.464752,186.659912 496.597443,187.001709 
z"/>
<path fill="#B7C5BF" opacity="1.000000" stroke="none" 
	d="
M649.009644,131.669174 
	C648.563599,132.000153 648.116760,132.000320 647.334961,131.999939 
	C646.999878,127.973846 646.999756,123.948296 647.002258,119.459076 
	C651.174316,121.670883 647.979309,125.804100 649.012451,129.558777 
	C649.016052,130.456635 649.012512,130.897491 649.009644,131.669174 
z"/>
<path fill="#BFCFC9" opacity="1.000000" stroke="none" 
	d="
M629.369873,189.939346 
	C629.622559,188.876907 630.257202,187.768127 630.952759,186.337555 
	C632.072876,186.006195 633.132141,185.996613 634.923828,185.989471 
	C636.102600,185.992966 636.548828,185.994049 636.995117,185.995117 
	C636.995117,185.995117 637.000732,186.000610 637.005249,186.005615 
	C636.355164,190.603745 631.927124,188.142654 629.369873,189.939346 
z"/>
<path fill="#B7C5BF" opacity="1.000000" stroke="none" 
	d="
M723.620789,51.065987 
	C723.658447,52.735226 723.342468,54.490719 723.025513,56.632515 
	C723.020142,57.458858 723.015869,57.898903 723.013062,58.669170 
	C722.567383,59.000130 722.120178,59.000866 721.337646,59.001389 
	C721.757324,56.384865 722.512268,53.768551 723.620789,51.065987 
z"/>
<path fill="#BFCFC9" opacity="1.000000" stroke="none" 
	d="
M587.257324,190.256805 
	C588.827698,189.825806 590.655396,189.655121 592.741577,189.743210 
	C591.171570,190.173691 589.343140,190.345398 587.257324,190.256805 
z"/>
<path fill="#B7C5BF" opacity="1.000000" stroke="none" 
	d="
M436.006683,188.306641 
	C437.759003,187.317535 439.510956,186.662415 441.639954,186.012894 
	C441.464722,186.848129 440.912445,187.677765 440.177307,188.762054 
	C438.895660,189.313431 437.796875,189.610153 436.357056,189.940750 
	C436.012817,189.529953 436.009583,189.085297 436.006683,188.306641 
z"/>
<path fill="#B7C5BF" opacity="1.000000" stroke="none" 
	d="
M429.245544,187.247925 
	C430.289581,187.099838 431.577271,187.211838 432.935791,187.654633 
	C431.834167,187.826294 430.661682,187.667145 429.245544,187.247925 
z"/>
<path fill="#B7C5BF" opacity="1.000000" stroke="none" 
	d="
M462.000397,187.372238 
	C464.739807,186.708527 467.479614,186.416580 470.556976,186.395081 
	C470.256653,187.768158 469.618805,188.870804 468.980927,189.973450 
	C466.950531,189.976425 464.920105,189.979416 462.455811,189.977081 
	C462.014893,189.229187 462.007843,188.486603 462.000397,187.372238 
z"/>
<path fill="#B7C5BF" opacity="1.000000" stroke="none" 
	d="
M445.194092,186.246552 
	C445.868988,185.852097 446.739319,185.690048 447.804321,185.761902 
	C447.129181,186.156845 446.259338,186.317902 445.194092,186.246552 
z"/>
<path fill="#B7C5BF" opacity="1.000000" stroke="none" 
	d="
M454.180695,186.226974 
	C454.643982,186.133148 455.286865,186.273071 455.971985,186.691498 
	C455.462921,186.800247 454.911621,186.630478 454.180695,186.226974 
z"/>
<path fill="#BFCFC9" opacity="1.000000" stroke="none" 
	d="
M469.399261,189.982147 
	C469.618805,188.870804 470.256653,187.768158 470.958191,186.345490 
	C472.403442,186.016861 473.785034,186.008240 475.949280,185.991211 
	C478.486694,185.982498 480.241486,185.982178 481.996246,185.981873 
	C480.708710,186.763290 479.421143,187.544693 478.062286,188.659149 
	C476.824371,189.156662 475.657745,189.321121 474.242981,189.738831 
	C472.602417,189.991669 471.210022,189.991272 469.399261,189.982147 
z"/>
<path fill="#B7C5BF" opacity="1.000000" stroke="none" 
	d="
M482.424561,185.985229 
	C480.241486,185.982178 478.486694,185.982498 476.364319,185.988007 
	C479.489105,182.312347 483.971405,182.058304 488.923767,185.622894 
	C488.839203,185.986328 488.668854,185.992310 488.242767,186.007294 
	C486.275665,186.007050 484.564301,185.997818 482.424561,185.985229 
z"/>
<path fill="#F6F8FA" opacity="1.000000" stroke="none" 
	d="
M368.227722,42.343323 
	C374.467346,42.343555 380.238495,42.343555 386.653259,42.343555 
	C386.085602,44.607658 385.468018,46.292236 385.270752,48.024673 
	C384.895538,51.319752 383.237213,52.370506 379.961395,52.254120 
	C373.375244,52.020123 366.774963,52.184521 360.183533,52.184521 
	C360.343140,43.199284 361.013947,42.375099 368.227722,42.343323 
z"/>
<path fill="#FBFCFC" opacity="1.000000" stroke="none" 
	d="
M493.468994,77.324112 
	C490.761139,77.408478 488.513885,77.408478 485.524261,77.408478 
	C488.498230,65.988495 491.340729,55.073406 494.183289,43.777748 
	C502.342377,42.914108 510.501434,42.431034 519.642273,41.889832 
	C517.327820,50.591526 515.353271,58.070068 513.348450,65.540497 
	C510.226990,77.171539 510.218262,77.167534 498.415649,77.188248 
	C496.920258,77.190872 495.424927,77.221878 493.468994,77.324112 
z"/>
<path fill="#F6F8FA" opacity="1.000000" stroke="none" 
	d="
M478.260620,132.661255 
	C480.280182,136.880035 482.021820,141.309662 483.973572,146.273712 
	C480.158875,146.273712 476.958405,146.273712 472.992950,146.273712 
	C474.701935,141.683701 476.342346,137.277893 478.260620,132.661255 
z"/>
<path fill="#B7C5BF" opacity="1.000000" stroke="none" 
	d="
M649.644043,169.048859 
	C648.881409,170.626709 647.789978,172.269974 646.355591,173.962708 
	C647.113525,172.379547 648.214355,170.746902 649.644043,169.048859 
z"/>
<path fill="#B7C5BF" opacity="1.000000" stroke="none" 
	d="
M642.717712,178.156464 
	C642.242432,179.307266 641.472595,180.604736 640.350220,181.949402 
	C640.806091,180.765427 641.614624,179.534286 642.717712,178.156464 
z"/>
<path fill="#B7C5BF" opacity="1.000000" stroke="none" 
	d="
M636.996826,185.662628 
	C636.548828,185.994049 636.102600,185.992966 635.321350,185.985077 
	C635.448792,185.352371 635.911133,184.726471 636.686768,184.050293 
	C636.999512,184.443375 636.999084,184.886765 636.996826,185.662628 
z"/>
<path fill="#B7C5BF" opacity="1.000000" stroke="none" 
	d="
M692.903381,110.595207 
	C688.695923,110.924332 684.343018,111.154694 680.069031,110.677917 
	C678.336975,110.484703 676.776794,108.750008 675.065247,107.363358 
	C679.445557,107.673531 683.906433,108.292702 688.348511,109.025299 
	C689.853210,109.273453 691.310669,109.808334 692.903381,110.595207 
z"/>
<path fill="#B7C5BF" opacity="1.000000" stroke="none" 
	d="
M707.629883,105.036705 
	C705.916260,109.243423 702.415955,111.071220 697.386292,110.984055 
	C700.411926,109.012680 703.843506,107.050087 707.629883,105.036705 
z"/>
<path fill="#B7C5BF" opacity="1.000000" stroke="none" 
	d="
M715.623169,82.060196 
	C714.888489,85.266273 713.801392,88.552002 712.361694,91.922058 
	C713.096313,88.717545 714.183472,85.428703 715.623169,82.060196 
z"/>
<path fill="#B7C5BF" opacity="1.000000" stroke="none" 
	d="
M720.606750,63.037304 
	C720.215637,65.589905 719.463806,68.206047 718.347839,70.909874 
	C718.737854,68.365318 719.491943,65.733078 720.606750,63.037304 
z"/>
<path fill="#B7C5BF" opacity="1.000000" stroke="none" 
	d="
M711.648193,95.063866 
	C711.504028,96.841171 711.022644,98.694817 710.263428,100.774422 
	C710.427429,99.046982 710.869263,97.093590 711.648193,95.063866 
z"/>
<path fill="#B7C5BF" opacity="1.000000" stroke="none" 
	d="
M716.694824,78.021637 
	C716.802429,78.533066 716.630554,79.087364 716.222351,79.820984 
	C716.129089,79.355034 716.272217,78.709778 716.694824,78.021637 
z"/>
<path fill="#B7C5BF" opacity="1.000000" stroke="none" 
	d="
M717.687988,74.018005 
	C717.795715,74.529762 717.624817,75.085960 717.216064,75.821358 
	C717.121948,75.354523 717.265625,74.708488 717.687988,74.018005 
z"/>
<path fill="#B0BDB8" opacity="1.000000" stroke="none" 
	d="
M661.113892,106.747002 
	C660.560852,107.006241 660.119263,107.008377 659.346741,107.013840 
	C658.846130,107.012352 658.676453,107.007530 658.252197,106.997787 
	C659.084412,106.329567 660.171265,105.666283 661.630249,105.002327 
	C661.743347,105.497742 661.484314,105.993820 661.113892,106.747002 
z"/>
</svg>