<svg xmlns="http://www.w3.org/2000/svg" width="512" height="512" viewBox="0 0 512 512">
    <linearGradient id="a" gradientUnits="userSpaceOnUse" x1="74.9807" x2="437.0193" y1="74.9807" y2="437.0193">
        <stop stop-opacity="1" stop-color="#3c3742" offset="0"/>
        <stop stop-opacity="1" stop-color="#3c3742" offset="1"/>
    </linearGradient>
    <linearGradient id="b">
        <stop stop-opacity="1" stop-color="#ffffff" offset="0"/>
        <stop stop-opacity="1" stop-color="#ffffff" offset="1"/>
    </linearGradient>
    <linearGradient id="c" gradientUnits="userSpaceOnUse" x1="238.0149" x2="273.9851" y1="407.5801" y2="443.5503" href="#b"/>
    <linearGradient id="d" gradientUnits="userSpaceOnUse" x1="161.6789" x2="350.3212" y1="108.6887" y2="297.3309" href="#b"/>
    <path d="m512 256c0 141.386719-114.613281 256-256 256s-256-114.613281-256-256 114.613281-256 256-256 256 114.613281 256 256zm0 0" fill="url(#a)"/>
    <path d="m281.433594 425.566406c0 14.046875-11.386719 25.433594-25.433594 25.433594s-25.433594-11.386719-25.433594-25.433594 11.386719-25.4375 25.433594-25.4375 25.433594 11.390625 25.433594 25.4375zm0 0" fill="url(#c)"/>
    <path d="m256 61c-62.175781 0-112.761719 50.585938-112.761719 112.761719h50.871094c0-34.128907 27.761719-61.890625 61.890625-61.890625s61.890625 27.761718 61.890625 61.890625c0 16.53125-6.4375 32.074219-18.125 43.761719-9.167969 9.167968-29.152344 27.941406-43.765625 41.578124-9.738281 9.085938-17.09375 15.898438-17.277344 16.066407l-8.15625 7.550781v83.5h50.867188v-61.285156c14.039062-13.050782 42.28125-39.417969 54.300781-51.4375 21.296875-21.296875 33.027344-49.613282 33.027344-79.734375 0-62.175781-50.585938-112.761719-112.761719-112.761719zm0 0" fill="url(#d)"/>
</svg>
